<?xml version="1.0" encoding="UTF-8" standalone="no"?>
<!-- Created with Inkscape (http://www.inkscape.org/) -->

<svg
   width="361"
   height="407"
   viewBox="0 0 95.514652 107.68573"
   version="1.1"
   id="svg1494"
   inkscape:version="1.1.1 (3bf5ae0d25, 2021-09-20)"
   sodipodi:docname="skull.svg"
   xmlns:inkscape="http://www.inkscape.org/namespaces/inkscape"
   xmlns:sodipodi="http://sodipodi.sourceforge.net/DTD/sodipodi-0.dtd"
   xmlns="http://www.w3.org/2000/svg"
   xmlns:svg="http://www.w3.org/2000/svg">
  <sodipodi:namedview
     id="namedview1496"
     pagecolor="#ffffff"
     bordercolor="#666666"
     borderopacity="1.0"
     inkscape:pageshadow="2"
     inkscape:pageopacity="0.0"
     inkscape:pagecheckerboard="0"
     inkscape:document-units="mm"
     showgrid="false"
     units="px"
     inkscape:zoom="1.6277344"
     inkscape:cx="209.18646"
     inkscape:cy="230.07439"
     inkscape:window-width="1920"
     inkscape:window-height="1017"
     inkscape:window-x="-8"
     inkscape:window-y="-8"
     inkscape:window-maximized="1"
     inkscape:current-layer="layer1" />
  <defs
     id="defs1491">
    <clipPath
       clipPathUnits="userSpaceOnUse"
       id="clipPath1886">
      <rect
         style="fill:#000000;stroke-width:15.6869;stroke-linecap:round;stroke-linejoin:round;paint-order:markers fill stroke"
         id="rect1888"
         width="437.22867"
         height="675.21759"
         x="-523.60968"
         y="-680.16644"
         transform="scale(-1)" />
    </clipPath>
  </defs>
  <g
     inkscape:label="Layer 1"
     inkscape:groupmode="layer"
     id="layer1">
    <g
       id="g1389"
       inkscape:label="skull-silhouette-2-freesvg.org"
       transform="matrix(-0.21859872,0,0,-0.16730927,114.4604,109.12581)"
       clip-path="url(#clipPath1886)">
      <g
         id="g2177">
        <path
           inkscape:connector-curvature="0"
           id="path1399"
           style="fill:#231f20;fill-opacity:1;fill-rule:nonzero;stroke:none"
           d="m 31.141,-25.146 h 3.677 c 1.135,0 2.026,0.106 2.672,0.318 0.646,0.212 1.161,0.51 1.545,0.893 0.54,0.541 0.961,1.269 1.262,2.182 0.302,0.914 0.453,2.022 0.453,3.322 0,1.804 -0.295,3.19 -0.887,4.159 -0.591,0.967 -1.31,1.617 -2.155,1.946 -0.612,0.235 -1.594,0.352 -2.949,0.352 h -3.618 z m -2.282,-2.031 v 17.235 h 5.932 c 1.338,0 2.36,-0.082 3.065,-0.247 0.986,-0.228 1.828,-0.639 2.525,-1.235 0.908,-0.767 1.587,-1.749 2.037,-2.944 0.451,-1.195 0.676,-2.562 0.676,-4.098 0,-1.308 -0.153,-2.469 -0.458,-3.479 -0.305,-1.011 -0.697,-1.848 -1.175,-2.51 -0.477,-0.663 -1,-1.184 -1.568,-1.564 -0.567,-0.38 -1.252,-0.668 -2.055,-0.864 -0.802,-0.196 -1.724,-0.294 -2.766,-0.294 z" />
        <path
           inkscape:connector-curvature="0"
           id="path1401"
           style="fill:#231f20;fill-opacity:1;fill-rule:nonzero;stroke:none"
           d="m 47.546,-19.739 h 6.969 c -0.094,1.052 -0.36,1.842 -0.799,2.368 -0.674,0.817 -1.548,1.225 -2.621,1.225 -0.971,0 -1.788,-0.326 -2.45,-0.978 -0.662,-0.651 -1.028,-1.523 -1.099,-2.615 m 6.946,-3.407 2.187,-0.281 c -0.345,-1.277 -0.983,-2.268 -1.915,-2.973 -0.931,-0.705 -2.122,-1.058 -3.571,-1.058 -1.824,0 -3.272,0.562 -4.34,1.687 -1.069,1.124 -1.603,2.701 -1.603,4.731 0,2.1 0.54,3.729 1.621,4.889 1.08,1.16 2.482,1.74 4.205,1.74 1.668,0 3.03,-0.568 4.088,-1.704 1.057,-1.136 1.586,-2.735 1.586,-4.794 0,-0.126 -0.004,-0.315 -0.012,-0.565 h -9.317 c 0.079,-1.373 0.467,-2.425 1.165,-3.155 0.698,-0.729 1.569,-1.095 2.612,-1.095 0.776,0 1.439,0.205 1.988,0.616 0.549,0.41 0.984,1.064 1.306,1.962" />
        <path
           inkscape:connector-curvature="0"
           id="path1403"
           style="fill:#231f20;fill-opacity:1;fill-rule:nonzero;stroke:none"
           d="m 58.489,-23.442 2.094,0.328 c 0.118,-0.842 0.445,-1.489 0.983,-1.937 0.538,-0.448 1.289,-0.673 2.254,-0.673 0.973,0 1.695,0.199 2.166,0.595 0.471,0.397 0.706,0.861 0.706,1.396 0,0.479 -0.207,0.855 -0.62,1.13 -0.289,0.189 -1.01,0.428 -2.163,0.719 -1.554,0.392 -2.631,0.731 -3.231,1.016 -0.6,0.286 -1.055,0.681 -1.365,1.187 -0.31,0.505 -0.464,1.063 -0.464,1.674 0,0.557 0.127,1.071 0.382,1.545 0.254,0.475 0.602,0.868 1.04,1.182 0.329,0.242 0.778,0.448 1.347,0.616 0.568,0.169 1.177,0.253 1.828,0.253 0.979,0 1.84,-0.141 2.58,-0.423 0.741,-0.282 1.288,-0.664 1.641,-1.145 0.352,-0.482 0.595,-1.125 0.729,-1.932 l -2.063,-0.281 c -0.094,0.642 -0.367,1.144 -0.818,1.505 -0.451,0.361 -1.089,0.541 -1.912,0.541 -0.974,0 -1.668,-0.161 -2.084,-0.483 -0.416,-0.321 -0.623,-0.698 -0.623,-1.13 0,-0.275 0.086,-0.523 0.259,-0.742 0.172,-0.228 0.443,-0.417 0.811,-0.566 0.212,-0.079 0.836,-0.259 1.872,-0.541 1.498,-0.401 2.543,-0.728 3.133,-0.982 0.59,-0.255 1.053,-0.625 1.389,-1.11 0.336,-0.487 0.504,-1.089 0.504,-1.81 0,-0.705 -0.206,-1.369 -0.617,-1.992 -0.412,-0.622 -1.006,-1.104 -1.783,-1.445 -0.776,-0.341 -1.654,-0.511 -2.634,-0.511 -1.623,0 -2.861,0.338 -3.711,1.013 -0.852,0.674 -1.395,1.675 -1.63,3.003" />
        <path
           inkscape:connector-curvature="0"
           id="path1405"
           style="fill:#231f20;fill-opacity:1;fill-rule:nonzero;stroke:none"
           d="m 71.378,-14.692 h 2.109 v -12.484 h -2.109 z m 0,4.75 h 2.109 v -2.438 h -2.109 z" />
        <path
           inkscape:connector-curvature="0"
           id="path1407"
           style="fill:#231f20;fill-opacity:1;fill-rule:nonzero;stroke:none"
           d="m 78.078,-20.712 c 0,-1.639 0.325,-2.834 0.974,-3.586 0.65,-0.753 1.464,-1.129 2.442,-1.129 0.97,0 1.784,0.374 2.442,1.123 0.657,0.748 0.985,1.922 0.985,3.522 0,1.528 -0.338,2.68 -1.015,3.457 -0.677,0.775 -1.492,1.164 -2.448,1.164 -0.938,0 -1.737,-0.383 -2.394,-1.147 -0.657,-0.764 -0.986,-1.899 -0.986,-3.404 m -1.75,-7.496 2.062,-0.313 c 0.086,-0.632 0.325,-1.093 0.716,-1.382 0.524,-0.391 1.24,-0.586 2.147,-0.586 0.978,0 1.733,0.196 2.265,0.588 0.531,0.392 0.892,0.941 1.079,1.647 0.11,0.432 0.16,1.337 0.153,2.718 -0.924,-1.094 -2.075,-1.641 -3.453,-1.641 -1.715,0 -3.043,0.619 -3.982,1.858 -0.94,1.238 -1.409,2.722 -1.409,4.455 0,1.191 0.216,2.29 0.646,3.297 0.431,1.006 1.056,1.785 1.874,2.333 0.819,0.548 1.78,0.823 2.885,0.823 1.472,0 2.687,-0.594 3.642,-1.781 v 1.5 h 1.953 v -10.789 c 0,-1.944 -0.198,-3.321 -0.593,-4.131 -0.396,-0.811 -1.023,-1.451 -1.881,-1.922 -0.858,-0.47 -1.914,-0.705 -3.168,-0.705 -1.488,0 -2.691,0.335 -3.608,1.005 -0.917,0.67 -1.36,1.678 -1.328,3.026" />
        <path
           inkscape:connector-curvature="0"
           id="path1409"
           style="fill:#231f20;fill-opacity:1;fill-rule:nonzero;stroke:none"
           d="m 90.104,-27.177 v 12.485 h 1.89 v -1.775 c 0.916,1.37 2.24,2.056 3.97,2.056 0.752,0 1.444,-0.135 2.074,-0.405 0.63,-0.271 1.102,-0.625 1.415,-1.065 0.313,-0.438 0.533,-0.96 0.658,-1.563 0.078,-0.392 0.118,-1.077 0.118,-2.057 v -7.676 h -2.11 v 7.598 c 0,0.862 -0.082,1.507 -0.246,1.934 -0.165,0.427 -0.456,0.769 -0.875,1.023 -0.419,0.256 -0.911,0.383 -1.474,0.383 -0.9,0 -1.677,-0.286 -2.331,-0.859 -0.653,-0.572 -0.98,-1.658 -0.98,-3.257 v -6.822 z" />
        <path
           inkscape:connector-curvature="0"
           id="path1411"
           style="fill:#231f20;fill-opacity:1;fill-rule:nonzero;stroke:none"
           d="m 105.062,-19.739 h 6.969 c -0.094,1.052 -0.361,1.842 -0.799,2.368 -0.674,0.817 -1.548,1.225 -2.621,1.225 -0.972,0 -1.788,-0.326 -2.45,-0.978 -0.662,-0.651 -1.029,-1.523 -1.099,-2.615 m 6.945,-3.407 2.188,-0.281 c -0.345,-1.277 -0.984,-2.268 -1.915,-2.973 -0.932,-0.705 -2.122,-1.058 -3.571,-1.058 -1.825,0 -3.272,0.562 -4.34,1.687 -1.07,1.124 -1.604,2.701 -1.604,4.731 0,2.1 0.54,3.729 1.621,4.889 1.081,1.16 2.483,1.74 4.205,1.74 1.668,0 3.031,-0.568 4.088,-1.704 1.057,-1.136 1.586,-2.735 1.586,-4.794 0,-0.126 -0.004,-0.315 -0.012,-0.565 h -9.316 c 0.078,-1.373 0.467,-2.425 1.165,-3.155 0.697,-0.729 1.568,-1.095 2.611,-1.095 0.777,0 1.439,0.205 1.989,0.616 0.548,0.41 0.984,1.064 1.305,1.962" />
        <path
           inkscape:connector-curvature="0"
           id="path1413"
           style="fill:#231f20;fill-opacity:1;fill-rule:nonzero;stroke:none"
           d="m 118.255,-20.948 c 0,-1.6 0.337,-2.795 1.01,-3.588 0.674,-0.791 1.469,-1.188 2.385,-1.188 0.924,0 1.709,0.378 2.355,1.135 0.646,0.757 0.969,1.911 0.969,3.464 0,1.71 -0.329,2.964 -0.987,3.765 -0.657,0.798 -1.468,1.199 -2.431,1.199 -0.94,0 -1.724,-0.385 -2.355,-1.152 -0.63,-0.77 -0.946,-1.981 -0.946,-3.635 m 6.688,-6.229 v 1.571 c -0.791,-1.235 -1.955,-1.852 -3.49,-1.852 -0.995,0 -1.91,0.274 -2.744,0.822 -0.834,0.549 -1.48,1.315 -1.938,2.299 -0.458,0.983 -0.688,2.113 -0.688,3.391 0,1.246 0.208,2.376 0.624,3.39 0.415,1.015 1.037,1.793 1.868,2.334 0.83,0.54 1.758,0.811 2.784,0.811 0.752,0 1.422,-0.158 2.01,-0.476 0.587,-0.317 1.065,-0.73 1.433,-1.239 v 6.184 h 2.11 v -17.235 z" />
        <path
           inkscape:connector-curvature="0"
           id="path1415"
           style="fill:#231f20;fill-opacity:1;fill-rule:nonzero;stroke:none"
           d="m 144.882,-20.911 c -0.767,-0.314 -1.918,-0.58 -3.451,-0.799 -0.869,-0.126 -1.484,-0.268 -1.844,-0.424 -0.36,-0.156 -0.637,-0.386 -0.833,-0.687 -0.196,-0.302 -0.294,-0.637 -0.294,-1.006 0,-0.565 0.213,-1.034 0.639,-1.41 0.426,-0.377 1.049,-0.565 1.869,-0.565 0.813,0 1.535,0.178 2.168,0.535 0.633,0.357 1.098,0.844 1.395,1.463 0.226,0.479 0.34,1.184 0.34,2.117 z m 0.172,-4.719 c -0.786,-0.668 -1.541,-1.141 -2.263,-1.415 -0.723,-0.275 -1.499,-0.413 -2.327,-0.413 -1.367,0 -2.418,0.335 -3.152,1.005 -0.734,0.67 -1.102,1.526 -1.102,2.567 0,0.612 0.139,1.17 0.416,1.675 0.278,0.506 0.641,0.911 1.09,1.217 0.45,0.306 0.955,0.536 1.518,0.693 0.414,0.11 1.039,0.216 1.875,0.318 1.703,0.203 2.957,0.446 3.762,0.728 0.007,0.29 0.011,0.475 0.011,0.553 0,0.863 -0.199,1.471 -0.598,1.823 -0.539,0.479 -1.341,0.718 -2.404,0.718 -0.992,0 -1.725,-0.175 -2.198,-0.524 -0.474,-0.348 -0.823,-0.965 -1.05,-1.851 l -2.062,0.281 c 0.188,0.886 0.497,1.601 0.928,2.146 0.43,0.544 1.052,0.963 1.867,1.256 0.814,0.295 1.758,0.442 2.831,0.442 1.064,0 1.929,-0.125 2.596,-0.376 0.665,-0.251 1.154,-0.567 1.467,-0.946 0.314,-0.38 0.533,-0.861 0.658,-1.44 0.071,-0.361 0.106,-1.012 0.106,-1.951 v -2.822 c 0,-1.967 0.045,-3.211 0.136,-3.733 0.09,-0.52 0.268,-1.019 0.536,-1.498 h -2.203 c -0.227,0.442 -0.373,0.957 -0.438,1.547" />
        <path
           inkscape:connector-curvature="0"
           id="path1417"
           style="fill:#231f20;fill-opacity:1;fill-rule:nonzero;stroke:none"
           d="m 150.31,-27.177 v 12.485 h 1.89 v -1.775 c 0.916,1.37 2.24,2.056 3.97,2.056 0.752,0 1.444,-0.135 2.074,-0.405 0.631,-0.271 1.102,-0.625 1.415,-1.065 0.313,-0.438 0.533,-0.96 0.658,-1.563 0.078,-0.392 0.118,-1.077 0.118,-2.057 v -7.676 h -2.11 v 7.598 c 0,0.862 -0.082,1.507 -0.246,1.934 -0.165,0.427 -0.456,0.769 -0.875,1.023 -0.419,0.256 -0.911,0.383 -1.474,0.383 -0.9,0 -1.677,-0.286 -2.331,-0.859 -0.653,-0.572 -0.98,-1.658 -0.98,-3.257 v -6.822 z" />
        <path
           inkscape:connector-curvature="0"
           id="path1419"
           style="fill:#231f20;fill-opacity:1;fill-rule:nonzero;stroke:none"
           d="m 165.081,-20.948 c 0,-1.6 0.336,-2.795 1.009,-3.588 0.674,-0.791 1.469,-1.188 2.385,-1.188 0.924,0 1.709,0.378 2.356,1.135 0.645,0.757 0.968,1.911 0.968,3.464 0,1.71 -0.329,2.964 -0.986,3.765 -0.658,0.798 -1.469,1.199 -2.432,1.199 -0.94,0 -1.724,-0.385 -2.355,-1.152 -0.63,-0.77 -0.945,-1.981 -0.945,-3.635 m 6.687,-6.229 v 1.571 c -0.791,-1.235 -1.955,-1.852 -3.49,-1.852 -0.994,0 -1.909,0.274 -2.743,0.822 -0.834,0.549 -1.481,1.315 -1.939,2.299 -0.458,0.983 -0.687,2.113 -0.687,3.391 0,1.246 0.207,2.376 0.623,3.39 0.415,1.015 1.037,1.793 1.868,2.334 0.83,0.54 1.758,0.811 2.785,0.811 0.752,0 1.421,-0.158 2.009,-0.476 0.587,-0.317 1.065,-0.73 1.433,-1.239 v 6.184 h 2.11 v -17.235 z" />
        <path
           inkscape:connector-curvature="0"
           id="path1421"
           style="fill:#231f20;fill-opacity:1;fill-rule:nonzero;stroke:none"
           d="m 183.724,-27.177 v 12.485 h 1.89 v -1.895 c 0.487,0.886 0.937,1.471 1.349,1.752 0.413,0.283 0.867,0.424 1.362,0.424 0.715,0 1.441,-0.228 2.18,-0.682 l -0.74,-1.957 c -0.516,0.301 -1.033,0.451 -1.549,0.451 -0.461,0 -0.876,-0.138 -1.243,-0.417 -0.368,-0.278 -0.63,-0.664 -0.787,-1.158 -0.235,-0.752 -0.353,-1.575 -0.353,-2.468 v -6.535 z" />
        <path
           inkscape:connector-curvature="0"
           id="path1423"
           style="fill:#231f20;fill-opacity:1;fill-rule:nonzero;stroke:none"
           d="m 193.345,-19.739 h 6.968 c -0.094,1.052 -0.36,1.842 -0.799,2.368 -0.674,0.817 -1.547,1.225 -2.62,1.225 -0.972,0 -1.789,-0.326 -2.451,-0.978 -0.662,-0.651 -1.028,-1.523 -1.098,-2.615 m 6.945,-3.407 2.187,-0.281 c -0.345,-1.277 -0.982,-2.268 -1.914,-2.973 -0.933,-0.705 -2.123,-1.058 -3.571,-1.058 -1.825,0 -3.272,0.562 -4.341,1.687 -1.068,1.124 -1.603,2.701 -1.603,4.731 0,2.1 0.54,3.729 1.621,4.889 1.081,1.16 2.482,1.74 4.206,1.74 1.667,0 3.03,-0.568 4.087,-1.704 1.057,-1.136 1.586,-2.735 1.586,-4.794 0,-0.126 -0.004,-0.315 -0.012,-0.565 h -9.316 c 0.078,-1.373 0.466,-2.425 1.164,-3.155 0.699,-0.729 1.569,-1.095 2.612,-1.095 0.776,0 1.439,0.205 1.988,0.616 0.549,0.41 0.984,1.064 1.306,1.962" />
        <path
           inkscape:connector-curvature="0"
           id="path1425"
           style="fill:#231f20;fill-opacity:1;fill-rule:nonzero;stroke:none"
           d="m 205.1,-9.942 h 2.109 V -27.176 H 205.1 Z" />
        <path
           inkscape:connector-curvature="0"
           id="path1427"
           style="fill:#231f20;fill-opacity:1;fill-rule:nonzero;stroke:none"
           d="m 212.07,-19.739 h 6.969 c -0.094,1.052 -0.361,1.842 -0.799,2.368 -0.674,0.817 -1.547,1.225 -2.62,1.225 -0.972,0 -1.789,-0.326 -2.451,-0.978 -0.662,-0.651 -1.028,-1.523 -1.099,-2.615 m 6.946,-3.407 2.187,-0.281 c -0.345,-1.277 -0.983,-2.268 -1.915,-2.973 -0.932,-0.705 -2.122,-1.058 -3.571,-1.058 -1.824,0 -3.271,0.562 -4.341,1.687 -1.068,1.124 -1.603,2.701 -1.603,4.731 0,2.1 0.541,3.729 1.622,4.889 1.08,1.16 2.482,1.74 4.205,1.74 1.668,0 3.03,-0.568 4.088,-1.704 1.057,-1.136 1.585,-2.735 1.585,-4.794 0,-0.126 -0.003,-0.315 -0.011,-0.565 h -9.317 c 0.079,-1.373 0.467,-2.425 1.165,-3.155 0.698,-0.729 1.568,-1.095 2.612,-1.095 0.776,0 1.439,0.205 1.987,0.616 0.549,0.41 0.985,1.064 1.307,1.962" />
        <path
           inkscape:connector-curvature="0"
           id="path1429"
           style="fill:#231f20;fill-opacity:1;fill-rule:nonzero;stroke:none"
           d="m 231.826,-20.911 c -0.767,-0.314 -1.918,-0.58 -3.452,-0.799 -0.869,-0.126 -1.483,-0.268 -1.843,-0.424 -0.361,-0.156 -0.638,-0.386 -0.834,-0.687 -0.196,-0.302 -0.293,-0.637 -0.293,-1.006 0,-0.565 0.213,-1.034 0.638,-1.41 0.426,-0.377 1.049,-0.565 1.87,-0.565 0.812,0 1.535,0.178 2.168,0.535 0.632,0.357 1.097,0.844 1.394,1.463 0.227,0.479 0.34,1.184 0.34,2.117 z m 0.172,-4.719 c -0.787,-0.668 -1.541,-1.141 -2.264,-1.415 -0.723,-0.275 -1.498,-0.413 -2.326,-0.413 -1.367,0 -2.418,0.335 -3.153,1.005 -0.734,0.67 -1.101,1.526 -1.101,2.567 0,0.612 0.138,1.17 0.416,1.675 0.277,0.506 0.64,0.911 1.09,1.217 0.449,0.306 0.955,0.536 1.517,0.693 0.414,0.11 1.039,0.216 1.875,0.318 1.703,0.203 2.957,0.446 3.762,0.728 0.008,0.29 0.012,0.475 0.012,0.553 0,0.863 -0.2,1.471 -0.598,1.823 -0.54,0.479 -1.341,0.718 -2.404,0.718 -0.993,0 -1.726,-0.175 -2.199,-0.524 -0.473,-0.348 -0.823,-0.965 -1.049,-1.851 l -2.063,0.281 c 0.188,0.886 0.497,1.601 0.928,2.146 0.431,0.544 1.053,0.963 1.867,1.256 0.815,0.295 1.758,0.442 2.831,0.442 1.065,0 1.93,-0.125 2.596,-0.376 0.665,-0.251 1.155,-0.567 1.468,-0.946 0.313,-0.38 0.532,-0.861 0.658,-1.44 0.07,-0.361 0.105,-1.012 0.105,-1.951 v -2.822 c 0,-1.967 0.045,-3.211 0.136,-3.733 0.09,-0.52 0.269,-1.019 0.536,-1.498 h -2.203 c -0.227,0.442 -0.373,0.957 -0.437,1.547" />
        <path
           inkscape:connector-curvature="0"
           id="path1431"
           style="fill:#231f20;fill-opacity:1;fill-rule:nonzero;stroke:none"
           d="m 236.394,-23.442 2.093,0.328 c 0.118,-0.842 0.446,-1.489 0.983,-1.937 0.538,-0.448 1.289,-0.673 2.254,-0.673 0.974,0 1.695,0.199 2.166,0.595 0.471,0.397 0.707,0.861 0.707,1.396 0,0.479 -0.207,0.855 -0.621,1.13 -0.289,0.189 -1.01,0.428 -2.163,0.719 -1.554,0.392 -2.631,0.731 -3.23,1.016 -0.601,0.286 -1.056,0.681 -1.366,1.187 -0.309,0.505 -0.464,1.063 -0.464,1.674 0,0.557 0.127,1.071 0.382,1.545 0.255,0.475 0.602,0.868 1.04,1.182 0.329,0.242 0.779,0.448 1.347,0.616 0.568,0.169 1.178,0.253 1.828,0.253 0.98,0 1.84,-0.141 2.581,-0.423 0.74,-0.282 1.287,-0.664 1.64,-1.145 0.352,-0.482 0.596,-1.125 0.729,-1.932 l -2.063,-0.281 c -0.094,0.642 -0.366,1.144 -0.818,1.505 -0.451,0.361 -1.088,0.541 -1.912,0.541 -0.973,0 -1.668,-0.161 -2.084,-0.483 -0.416,-0.321 -0.623,-0.698 -0.623,-1.13 0,-0.275 0.086,-0.523 0.259,-0.742 0.172,-0.228 0.443,-0.417 0.812,-0.566 0.212,-0.079 0.836,-0.259 1.871,-0.541 1.499,-0.401 2.543,-0.728 3.133,-0.982 0.59,-0.255 1.053,-0.625 1.389,-1.11 0.336,-0.487 0.505,-1.089 0.505,-1.81 0,-0.705 -0.206,-1.369 -0.618,-1.992 -0.412,-0.622 -1.006,-1.104 -1.782,-1.445 -0.777,-0.341 -1.655,-0.511 -2.635,-0.511 -1.623,0 -2.86,0.338 -3.711,1.013 -0.852,0.674 -1.395,1.675 -1.629,3.003" />
        <path
           inkscape:connector-curvature="0"
           id="path1433"
           style="fill:#231f20;fill-opacity:1;fill-rule:nonzero;stroke:none"
           d="m 250.861,-19.739 h 6.969 c -0.094,1.052 -0.361,1.842 -0.799,2.368 -0.674,0.817 -1.548,1.225 -2.621,1.225 -0.972,0 -1.788,-0.326 -2.451,-0.978 -0.662,-0.651 -1.028,-1.523 -1.098,-2.615 m 6.945,-3.407 2.188,-0.281 c -0.345,-1.277 -0.984,-2.268 -1.915,-2.973 -0.932,-0.705 -2.122,-1.058 -3.572,-1.058 -1.824,0 -3.271,0.562 -4.34,1.687 -1.069,1.124 -1.603,2.701 -1.603,4.731 0,2.1 0.54,3.729 1.621,4.889 1.08,1.16 2.482,1.74 4.205,1.74 1.668,0 3.031,-0.568 4.088,-1.704 1.057,-1.136 1.586,-2.735 1.586,-4.794 0,-0.126 -0.004,-0.315 -0.012,-0.565 h -9.316 c 0.078,-1.373 0.467,-2.425 1.164,-3.155 0.698,-0.729 1.569,-1.095 2.612,-1.095 0.777,0 1.439,0.205 1.988,0.616 0.549,0.41 0.984,1.064 1.306,1.962" />
        <path
           inkscape:connector-curvature="0"
           id="path1435"
           style="fill:#231f20;fill-opacity:1;fill-rule:nonzero;stroke:none"
           d="m 264.053,-20.948 c 0,-1.6 0.337,-2.795 1.01,-3.588 0.674,-0.791 1.469,-1.188 2.385,-1.188 0.924,0 1.709,0.378 2.355,1.135 0.646,0.757 0.969,1.911 0.969,3.464 0,1.71 -0.329,2.964 -0.987,3.765 -0.658,0.798 -1.468,1.199 -2.431,1.199 -0.94,0 -1.725,-0.385 -2.355,-1.152 -0.63,-0.77 -0.946,-1.981 -0.946,-3.635 m 6.688,-6.229 v 1.571 c -0.791,-1.235 -1.954,-1.852 -3.49,-1.852 -0.995,0 -1.91,0.274 -2.744,0.822 -0.834,0.549 -1.48,1.315 -1.938,2.299 -0.458,0.983 -0.688,2.113 -0.688,3.391 0,1.246 0.208,2.376 0.623,3.39 0.415,1.015 1.038,1.793 1.869,2.334 0.83,0.54 1.757,0.811 2.785,0.811 0.752,0 1.422,-0.158 2.009,-0.476 0.586,-0.317 1.065,-0.73 1.433,-1.239 v 6.184 h 2.109 v -17.235 z" />
        <path
           inkscape:connector-curvature="0"
           id="path1437"
           style="fill:#231f20;fill-opacity:1;fill-rule:nonzero;stroke:none"
           d="m 282.728,-14.692 h 2.109 v -12.484 h -2.109 z m 0,4.75 h 2.109 v -2.438 h -2.109 z" />
        <path
           inkscape:connector-curvature="0"
           id="path1439"
           style="fill:#231f20;fill-opacity:1;fill-rule:nonzero;stroke:none"
           d="m 288.073,-27.177 v 12.485 h 1.89 v -1.775 c 0.916,1.37 2.24,2.056 3.971,2.056 0.751,0 1.442,-0.135 2.073,-0.405 0.63,-0.271 1.102,-0.625 1.415,-1.065 0.314,-0.438 0.533,-0.96 0.659,-1.563 0.078,-0.392 0.117,-1.077 0.117,-2.057 v -7.676 h -2.11 v 7.598 c 0,0.862 -0.082,1.507 -0.247,1.934 -0.164,0.427 -0.455,0.769 -0.874,1.023 -0.419,0.256 -0.91,0.383 -1.473,0.383 -0.901,0 -1.678,-0.286 -2.331,-0.859 -0.654,-0.572 -0.981,-1.658 -0.981,-3.257 v -6.822 z" />
        <path
           inkscape:connector-curvature="0"
           id="path1441"
           style="fill:#231f20;fill-opacity:1;fill-rule:nonzero;stroke:none"
           d="m 310.043,-21.007 c 0,-1.607 0.326,-2.796 0.975,-3.564 0.649,-0.769 1.436,-1.153 2.359,-1.153 0.939,0 1.744,0.399 2.413,1.194 0.668,0.797 1.003,2.029 1.003,3.699 0,1.592 -0.327,2.783 -0.98,3.576 -0.653,0.791 -1.435,1.188 -2.342,1.188 -0.899,0 -1.696,-0.422 -2.388,-1.265 -0.693,-0.843 -1.04,-2.067 -1.04,-3.675 m -1.906,-10.951 v 17.266 h 1.922 v -1.622 c 0.454,0.633 0.968,1.11 1.539,1.427 0.571,0.318 1.265,0.476 2.08,0.476 1.066,0 2.005,-0.275 2.82,-0.822 0.814,-0.549 1.429,-1.324 1.844,-2.323 0.415,-0.999 0.623,-2.093 0.623,-3.285 0,-1.277 -0.229,-2.427 -0.687,-3.449 -0.458,-1.023 -1.124,-1.807 -1.997,-2.352 -0.874,-0.544 -1.793,-0.816 -2.756,-0.816 -0.705,0 -1.338,0.148 -1.898,0.445 -0.56,0.297 -1.02,0.672 -1.38,1.125 v -6.07 z" />
        <path
           inkscape:connector-curvature="0"
           id="path1443"
           style="fill:#231f20;fill-opacity:1;fill-rule:nonzero;stroke:none"
           d="m 329.674,-27.177 v 1.841 c -0.968,-1.415 -2.285,-2.122 -3.949,-2.122 -0.734,0 -1.42,0.141 -2.057,0.423 -0.636,0.282 -1.109,0.637 -1.418,1.064 -0.308,0.427 -0.525,0.95 -0.65,1.57 -0.086,0.415 -0.129,1.073 -0.129,1.974 v 7.735 h 2.11 v -6.92 c 0,-1.105 0.043,-1.848 0.128,-2.233 0.133,-0.555 0.415,-0.992 0.845,-1.309 0.43,-0.318 0.961,-0.476 1.595,-0.476 0.633,0 1.227,0.162 1.782,0.487 0.555,0.326 0.947,0.768 1.179,1.328 0.23,0.56 0.346,1.373 0.346,2.438 v 6.685 h 2.108 v -12.485 z" />
        <path
           inkscape:connector-curvature="0"
           id="path1445"
           style="fill:#231f20;fill-opacity:1;fill-rule:nonzero;stroke:none"
           d="m 336.804,-20.841 c 0,-1.498 0.204,-2.58 0.612,-3.247 0.667,-1.091 1.569,-1.636 2.708,-1.636 0.926,0 1.727,0.403 2.401,1.206 0.675,0.804 1.013,2.002 1.013,3.595 0,1.632 -0.324,2.836 -0.972,3.612 -0.647,0.777 -1.43,1.165 -2.348,1.165 -0.926,0 -1.727,-0.402 -2.402,-1.206 -0.674,-0.803 -1.012,-1.966 -1.012,-3.489 m 0.031,-6.336 h -1.953 v 17.235 h 2.109 v -6.145 c 0.895,1.117 2.035,1.676 3.424,1.676 0.769,0 1.496,-0.154 2.183,-0.465 0.686,-0.309 1.251,-0.744 1.694,-1.305 0.443,-0.559 0.791,-1.235 1.041,-2.027 0.252,-0.791 0.377,-1.638 0.377,-2.539 0,-2.139 -0.529,-3.792 -1.589,-4.96 -1.059,-1.167 -2.331,-1.751 -3.813,-1.751 -1.476,0 -2.633,0.613 -3.473,1.84 z" />
        <path
           inkscape:connector-curvature="0"
           id="path1447"
           style="fill:#231f20;fill-opacity:1;fill-rule:nonzero;stroke:none"
           d="m 348.231,-9.942 h 2.109 v -17.234 h -2.109 z" />
        <path
           inkscape:connector-curvature="0"
           id="path1449"
           style="fill:#231f20;fill-opacity:1;fill-rule:nonzero;stroke:none"
           d="m 353.623,-14.692 h 2.109 v -12.484 h -2.109 z m 0,4.75 h 2.109 v -2.438 h -2.109 z" />
        <path
           inkscape:connector-curvature="0"
           id="path1451"
           style="fill:#231f20;fill-opacity:1;fill-rule:nonzero;stroke:none"
           d="m 367.109,-22.599 2.079,-0.281 c -0.228,-1.432 -0.81,-2.553 -1.747,-3.363 -0.936,-0.811 -2.087,-1.215 -3.45,-1.215 -1.709,0 -3.082,0.559 -4.121,1.675 -1.039,1.116 -1.557,2.717 -1.557,4.802 0,1.347 0.223,2.527 0.669,3.537 0.447,1.011 1.126,1.769 2.039,2.275 0.914,0.505 1.907,0.758 2.98,0.758 1.355,0 2.465,-0.344 3.326,-1.029 0.861,-0.687 1.414,-1.662 1.657,-2.924 l -2.062,-0.313 c -0.196,0.84 -0.542,1.472 -1.04,1.896 -0.497,0.424 -1.098,0.635 -1.803,0.635 -1.065,0 -1.931,-0.382 -2.596,-1.147 -0.666,-0.765 -0.999,-1.975 -0.999,-3.63 0,-1.679 0.322,-2.898 0.965,-3.659 0.644,-0.761 1.483,-1.142 2.519,-1.142 0.831,0 1.525,0.256 2.082,0.767 0.557,0.511 0.91,1.297 1.059,2.358" />
        <path
           inkscape:connector-curvature="0"
           id="path1453"
           style="fill:#231f20;fill-opacity:1;fill-rule:nonzero;stroke:none"
           d="m 379.073,-20.948 c 0,-1.6 0.337,-2.795 1.01,-3.588 0.674,-0.791 1.469,-1.188 2.385,-1.188 0.924,0 1.709,0.378 2.355,1.135 0.646,0.757 0.969,1.911 0.969,3.464 0,1.71 -0.329,2.964 -0.986,3.765 -0.659,0.798 -1.469,1.199 -2.432,1.199 -0.939,0 -1.725,-0.385 -2.355,-1.152 -0.63,-0.77 -0.946,-1.981 -0.946,-3.635 m 6.688,-6.229 v 1.571 c -0.791,-1.235 -1.955,-1.852 -3.49,-1.852 -0.995,0 -1.91,0.274 -2.744,0.822 -0.834,0.549 -1.48,1.315 -1.938,2.299 -0.459,0.983 -0.688,2.113 -0.688,3.391 0,1.246 0.207,2.376 0.623,3.39 0.415,1.015 1.038,1.793 1.869,2.334 0.83,0.54 1.758,0.811 2.784,0.811 0.752,0 1.422,-0.158 2.01,-0.476 0.587,-0.317 1.065,-0.73 1.433,-1.239 v 6.184 h 2.109 v -17.235 z" />
        <path
           inkscape:connector-curvature="0"
           id="path1455"
           style="fill:#231f20;fill-opacity:1;fill-rule:nonzero;stroke:none"
           d="m 392.438,-20.937 c 0,-1.599 0.348,-2.796 1.045,-3.593 0.698,-0.795 1.575,-1.194 2.632,-1.194 1.05,0 1.923,0.401 2.62,1.2 0.698,0.8 1.046,2.019 1.046,3.658 0,1.545 -0.35,2.715 -1.052,3.512 -0.701,0.794 -1.572,1.193 -2.614,1.193 -1.057,0 -1.934,-0.397 -2.632,-1.188 -0.697,-0.793 -1.045,-1.988 -1.045,-3.588 m -2.172,0.002 c 0,2.312 0.641,4.024 1.926,5.137 1.073,0.924 2.38,1.387 3.923,1.387 1.715,0 3.116,-0.563 4.205,-1.687 1.089,-1.125 1.633,-2.678 1.633,-4.661 0,-1.605 -0.241,-2.869 -0.723,-3.79 -0.481,-0.921 -1.182,-1.636 -2.102,-2.145 -0.92,-0.509 -1.924,-0.764 -3.013,-0.764 -1.746,0 -3.158,0.561 -4.234,1.681 -1.077,1.12 -1.615,2.735 -1.615,4.842" />
        <path
           inkscape:connector-curvature="0"
           id="path1457"
           style="fill:#231f20;fill-opacity:1;fill-rule:nonzero;stroke:none"
           d="m 404.436,-27.177 v 12.485 h 1.89 v -1.747 c 0.392,0.609 0.911,1.1 1.561,1.471 0.649,0.371 1.387,0.557 2.217,0.557 0.922,0 1.679,-0.192 2.27,-0.574 0.59,-0.384 1.007,-0.919 1.249,-1.607 0.988,1.454 2.275,2.181 3.859,2.181 1.24,0 2.193,-0.343 2.86,-1.028 0.667,-0.687 1,-1.743 1,-3.168 v -8.57 h -2.11 v 7.868 c 0,0.847 -0.068,1.456 -0.206,1.83 -0.136,0.372 -0.385,0.671 -0.746,0.899 -0.361,0.227 -0.785,0.341 -1.27,0.341 -0.879,0 -1.609,-0.292 -2.189,-0.876 -0.58,-0.585 -0.87,-1.52 -0.87,-2.806 v -7.256 h -2.109 v 8.115 c 0,0.941 -0.172,1.647 -0.517,2.117 -0.345,0.47 -0.908,0.706 -1.691,0.706 -0.595,0 -1.145,-0.157 -1.651,-0.471 -0.504,-0.313 -0.871,-0.772 -1.097,-1.376 -0.227,-0.603 -0.341,-1.474 -0.341,-2.61 v -6.481 z" />
        <path
           inkscape:connector-curvature="0"
           id="path1459"
           style="fill:#231f20;fill-opacity:1;fill-rule:nonzero;stroke:none"
           d="m 432.438,-20.911 c -0.767,-0.314 -1.918,-0.58 -3.453,-0.799 -0.868,-0.126 -1.482,-0.268 -1.842,-0.424 -0.361,-0.156 -0.638,-0.386 -0.833,-0.687 -0.197,-0.302 -0.294,-0.637 -0.294,-1.006 0,-0.565 0.213,-1.034 0.638,-1.41 0.426,-0.377 1.049,-0.565 1.869,-0.565 0.813,0 1.536,0.178 2.168,0.535 0.633,0.357 1.098,0.844 1.395,1.463 0.227,0.479 0.34,1.184 0.34,2.117 z m 0.171,-4.719 c -0.786,-0.668 -1.541,-1.141 -2.263,-1.415 -0.723,-0.275 -1.498,-0.413 -2.326,-0.413 -1.368,0 -2.418,0.335 -3.153,1.005 -0.734,0.67 -1.101,1.526 -1.101,2.567 0,0.612 0.138,1.17 0.416,1.675 0.277,0.506 0.64,0.911 1.089,1.217 0.45,0.306 0.956,0.536 1.518,0.693 0.414,0.11 1.039,0.216 1.875,0.318 1.703,0.203 2.957,0.446 3.762,0.728 0.008,0.29 0.012,0.475 0.012,0.553 0,0.863 -0.2,1.471 -0.599,1.823 -0.539,0.479 -1.34,0.718 -2.403,0.718 -0.994,0 -1.726,-0.175 -2.199,-0.524 -0.473,-0.348 -0.823,-0.965 -1.049,-1.851 l -2.063,0.281 c 0.188,0.886 0.497,1.601 0.928,2.146 0.43,0.544 1.052,0.963 1.867,1.256 0.814,0.295 1.759,0.442 2.831,0.442 1.064,0 1.93,-0.125 2.596,-0.376 0.665,-0.251 1.154,-0.567 1.467,-0.946 0.314,-0.38 0.533,-0.861 0.659,-1.44 0.07,-0.361 0.105,-1.012 0.105,-1.951 v -2.822 c 0,-1.967 0.045,-3.211 0.136,-3.733 0.09,-0.52 0.268,-1.019 0.536,-1.498 h -2.203 c -0.228,0.442 -0.373,0.957 -0.438,1.547" />
        <path
           inkscape:connector-curvature="0"
           id="path1461"
           style="fill:#231f20;fill-opacity:1;fill-rule:nonzero;stroke:none"
           d="m 437.865,-14.692 h 2.109 v -12.484 h -2.109 z m 0,4.75 h 2.109 v -2.438 h -2.109 z" />
        <path
           inkscape:connector-curvature="0"
           id="path1463"
           style="fill:#231f20;fill-opacity:1;fill-rule:nonzero;stroke:none"
           d="m 443.21,-27.177 v 12.485 h 1.891 v -1.775 c 0.916,1.37 2.239,2.056 3.97,2.056 0.752,0 1.443,-0.135 2.074,-0.405 0.629,-0.271 1.101,-0.625 1.415,-1.065 0.313,-0.438 0.532,-0.96 0.658,-1.563 0.078,-0.392 0.117,-1.077 0.117,-2.057 v -7.676 h -2.109 v 7.598 c 0,0.862 -0.082,1.507 -0.247,1.934 -0.165,0.427 -0.457,0.769 -0.875,1.023 -0.418,0.256 -0.91,0.383 -1.473,0.383 -0.901,0 -1.678,-0.286 -2.331,-0.859 -0.654,-0.572 -0.981,-1.658 -0.981,-3.257 v -6.822 z" />
        <path
           inkscape:connector-curvature="0"
           id="path1465"
           style="fill:#231f20;fill-opacity:1;fill-rule:nonzero;stroke:none"
           d="m 465.181,-20.841 c 0,-1.498 0.204,-2.58 0.612,-3.247 0.667,-1.091 1.569,-1.636 2.708,-1.636 0.926,0 1.727,0.403 2.401,1.206 0.675,0.804 1.013,2.002 1.013,3.595 0,1.632 -0.324,2.836 -0.972,3.612 -0.647,0.777 -1.43,1.165 -2.348,1.165 -0.926,0 -1.727,-0.402 -2.402,-1.206 -0.674,-0.803 -1.012,-1.966 -1.012,-3.489 m 0.031,-6.336 h -1.953 v 17.235 h 2.109 v -6.145 c 0.895,1.117 2.035,1.676 3.424,1.676 0.769,0 1.496,-0.154 2.183,-0.465 0.686,-0.309 1.251,-0.744 1.694,-1.305 0.443,-0.559 0.791,-1.235 1.041,-2.027 0.252,-0.791 0.377,-1.638 0.377,-2.539 0,-2.139 -0.529,-3.792 -1.589,-4.96 -1.06,-1.167 -2.331,-1.751 -3.813,-1.751 -1.476,0 -2.633,0.613 -3.473,1.84 z" />
        <path
           inkscape:connector-curvature="0"
           id="path1467"
           style="fill:#231f20;fill-opacity:1;fill-rule:nonzero;stroke:none"
           d="m 476.562,-31.979 -0.235,1.99 c 0.461,-0.125 0.864,-0.188 1.208,-0.188 0.47,0 0.845,0.078 1.126,0.235 0.281,0.157 0.513,0.377 0.693,0.658 0.132,0.212 0.347,0.736 0.645,1.574 0.039,0.118 0.102,0.29 0.188,0.518 l -4.75,12.5 h 2.28 l 2.602,-7.198 c 0.338,-0.912 0.64,-1.872 0.908,-2.879 0.244,0.941 0.535,1.873 0.873,2.797 l 2.665,7.28 h 2.114 l -4.733,-12.704 c -0.51,-1.369 -0.906,-2.31 -1.188,-2.827 -0.376,-0.695 -0.807,-1.205 -1.293,-1.53 -0.486,-0.324 -1.066,-0.486 -1.74,-0.486 -0.407,0 -0.862,0.086 -1.363,0.26" />
        <path
           inkscape:connector-curvature="0"
           id="path1469"
           style="fill:#231f20;fill-opacity:1;fill-rule:nonzero;stroke:none"
           d="m 495.744,-27.177 v 17.235 h 11.625 v -2.032 h -9.344 v -5.343 h 8.094 v -2.032 h -8.094 v -7.828 z" />
        <path
           inkscape:connector-curvature="0"
           id="path1471"
           style="fill:#231f20;fill-opacity:1;fill-rule:nonzero;stroke:none"
           d="m 510.034,-27.177 v 12.485 h 1.891 v -1.895 c 0.487,0.886 0.936,1.471 1.349,1.752 0.413,0.283 0.866,0.424 1.362,0.424 0.715,0 1.441,-0.228 2.179,-0.682 l -0.74,-1.957 c -0.515,0.301 -1.032,0.451 -1.549,0.451 -0.461,0 -0.875,-0.138 -1.243,-0.417 -0.367,-0.278 -0.63,-0.664 -0.786,-1.158 -0.236,-0.752 -0.353,-1.575 -0.353,-2.468 v -6.535 z" />
        <path
           inkscape:connector-curvature="0"
           id="path1473"
           style="fill:#231f20;fill-opacity:1;fill-rule:nonzero;stroke:none"
           d="m 519.655,-19.739 h 6.969 c -0.094,1.052 -0.36,1.842 -0.799,2.368 -0.674,0.817 -1.548,1.225 -2.621,1.225 -0.972,0 -1.788,-0.326 -2.45,-0.978 -0.662,-0.651 -1.028,-1.523 -1.099,-2.615 m 6.946,-3.407 2.187,-0.281 c -0.345,-1.277 -0.983,-2.268 -1.915,-2.973 -0.932,-0.705 -2.122,-1.058 -3.571,-1.058 -1.824,0 -3.272,0.562 -4.34,1.687 -1.069,1.124 -1.604,2.701 -1.604,4.731 0,2.1 0.54,3.729 1.621,4.889 1.081,1.16 2.483,1.74 4.206,1.74 1.668,0 3.031,-0.568 4.087,-1.704 1.057,-1.136 1.586,-2.735 1.586,-4.794 0,-0.126 -0.004,-0.315 -0.011,-0.565 h -9.317 c 0.078,-1.373 0.467,-2.425 1.164,-3.155 0.699,-0.729 1.57,-1.095 2.613,-1.095 0.776,0 1.438,0.205 1.988,0.616 0.549,0.41 0.983,1.064 1.306,1.962" />
        <path
           inkscape:connector-curvature="0"
           id="path1475"
           style="fill:#231f20;fill-opacity:1;fill-rule:nonzero;stroke:none"
           d="m 533.035,-19.739 h 6.969 c -0.095,1.052 -0.36,1.842 -0.799,2.368 -0.674,0.817 -1.548,1.225 -2.621,1.225 -0.972,0 -1.788,-0.326 -2.45,-0.978 -0.662,-0.651 -1.029,-1.523 -1.099,-2.615 m 6.945,-3.407 2.188,-0.281 c -0.345,-1.277 -0.983,-2.268 -1.915,-2.973 -0.932,-0.705 -2.122,-1.058 -3.57,-1.058 -1.826,0 -3.273,0.562 -4.341,1.687 -1.07,1.124 -1.604,2.701 -1.604,4.731 0,2.1 0.54,3.729 1.621,4.889 1.081,1.16 2.483,1.74 4.205,1.74 1.668,0 3.031,-0.568 4.088,-1.704 1.058,-1.136 1.586,-2.735 1.586,-4.794 0,-0.126 -0.004,-0.315 -0.011,-0.565 h -9.317 c 0.078,-1.373 0.467,-2.425 1.165,-3.155 0.697,-0.729 1.569,-1.095 2.612,-1.095 0.776,0 1.439,0.205 1.988,0.616 0.549,0.41 0.984,1.064 1.305,1.962" />
        <path
           inkscape:connector-curvature="0"
           id="path1477"
           style="fill:#231f20;fill-opacity:1;fill-rule:nonzero;stroke:none"
           d="m 544.338,-21.646 2.156,0.188 c 0.102,-0.864 0.338,-1.574 0.709,-2.128 0.371,-0.554 0.948,-1.002 1.73,-1.344 0.781,-0.341 1.661,-0.512 2.637,-0.512 0.868,0 1.634,0.129 2.298,0.388 0.664,0.26 1.158,0.616 1.484,1.068 0.324,0.451 0.486,0.944 0.486,1.476 0,0.541 -0.156,1.013 -0.468,1.417 -0.311,0.404 -0.828,0.742 -1.549,1.017 -0.462,0.18 -1.484,0.461 -3.066,0.842 -1.583,0.38 -2.692,0.739 -3.328,1.077 -0.824,0.431 -1.438,0.967 -1.842,1.607 -0.404,0.639 -0.606,1.356 -0.606,2.149 0,0.871 0.247,1.685 0.741,2.442 0.493,0.757 1.215,1.332 2.163,1.725 0.948,0.392 2.003,0.588 3.163,0.588 1.278,0 2.404,-0.205 3.381,-0.616 0.976,-0.411 1.726,-1.015 2.252,-1.813 0.525,-0.798 0.807,-1.701 0.846,-2.711 l -2.187,-0.172 c -0.118,1.087 -0.515,1.908 -1.192,2.464 -0.678,0.556 -1.68,0.833 -3.003,0.833 -1.38,0 -2.384,-0.253 -3.015,-0.759 -0.631,-0.507 -0.946,-1.116 -0.946,-1.83 0,-0.62 0.223,-1.13 0.67,-1.53 0.438,-0.401 1.585,-0.811 3.437,-1.23 1.853,-0.42 3.124,-0.786 3.814,-1.099 1.002,-0.462 1.743,-1.048 2.221,-1.757 0.478,-0.709 0.717,-1.526 0.717,-2.449 0,-0.917 -0.263,-1.781 -0.787,-2.591 -0.525,-0.812 -1.277,-1.442 -2.26,-1.892 -0.982,-0.45 -2.089,-0.676 -3.317,-0.676 -1.558,0 -2.864,0.228 -3.916,0.682 -1.053,0.454 -1.879,1.138 -2.478,2.051 -0.598,0.912 -0.914,1.944 -0.945,3.095" />
        <path
           inkscape:connector-curvature="0"
           id="path1479"
           style="fill:#231f20;fill-opacity:1;fill-rule:nonzero;stroke:none"
           d="m 566.063,-27.177 -6.666,17.235 h 2.472 l 4.478,-12.516 c 0.36,-1.003 0.662,-1.943 0.905,-2.82 0.267,0.939 0.576,1.88 0.929,2.82 l 4.657,12.516 h 2.331 l -6.748,-17.235 z" />
        <path
           inkscape:connector-curvature="0"
           id="path1481"
           style="fill:#231f20;fill-opacity:1;fill-rule:nonzero;stroke:none"
           d="m 585.26,-20.427 v 2.031 h 7.297 v -6.388 c -1.12,-0.893 -2.277,-1.565 -3.468,-2.014 -1.191,-0.451 -2.413,-0.676 -3.666,-0.676 -1.694,0 -3.231,0.363 -4.613,1.088 -1.384,0.725 -2.428,1.774 -3.133,3.146 -0.705,1.372 -1.058,2.905 -1.058,4.598 0,1.678 0.351,3.244 1.052,4.698 0.701,1.455 1.71,2.535 3.026,3.24 1.317,0.706 2.833,1.058 4.549,1.058 1.245,0 2.372,-0.202 3.379,-0.606 1.007,-0.404 1.796,-0.968 2.368,-1.689 0.572,-0.722 1.007,-1.664 1.305,-2.827 l -2.058,-0.563 c -0.259,0.878 -0.58,1.568 -0.965,2.071 -0.383,0.503 -0.932,0.906 -1.645,1.208 -0.714,0.302 -1.506,0.453 -2.376,0.453 -1.042,0 -1.944,-0.158 -2.704,-0.476 -0.761,-0.317 -1.375,-0.735 -1.841,-1.252 -0.466,-0.517 -0.829,-1.085 -1.088,-1.704 -0.438,-1.066 -0.658,-2.222 -0.658,-3.468 0,-1.536 0.265,-2.821 0.794,-3.855 0.529,-1.036 1.299,-1.803 2.31,-2.305 1.011,-0.501 2.085,-0.752 3.222,-0.752 0.988,0 1.952,0.189 2.894,0.568 0.94,0.38 1.653,0.784 2.139,1.215 v 3.201 z" />
        <path
           inkscape:connector-curvature="0"
           id="path1483"
           style="fill:#231f20;fill-opacity:1;fill-rule:nonzero;stroke:none"
           d="m 596.239,-24.771 h 2.406 v -2.406 h -2.406 z" />
        <path
           inkscape:connector-curvature="0"
           id="path1485"
           style="fill:#231f20;fill-opacity:1;fill-rule:nonzero;stroke:none"
           d="m 603.705,-20.937 c 0,-1.599 0.349,-2.796 1.046,-3.593 0.697,-0.795 1.574,-1.194 2.632,-1.194 1.05,0 1.923,0.401 2.62,1.2 0.697,0.8 1.046,2.019 1.046,3.658 0,1.545 -0.351,2.715 -1.052,3.512 -0.701,0.794 -1.572,1.193 -2.614,1.193 -1.058,0 -1.935,-0.397 -2.632,-1.188 -0.697,-0.793 -1.046,-1.988 -1.046,-3.588 m -2.172,0.002 c 0,2.312 0.642,4.024 1.927,5.137 1.072,0.924 2.38,1.387 3.923,1.387 1.715,0 3.116,-0.563 4.205,-1.687 1.089,-1.125 1.633,-2.678 1.633,-4.661 0,-1.605 -0.242,-2.869 -0.723,-3.79 -0.481,-0.921 -1.183,-1.636 -2.102,-2.145 -0.92,-0.509 -1.924,-0.764 -3.013,-0.764 -1.746,0 -3.158,0.561 -4.235,1.681 -1.077,1.12 -1.615,2.735 -1.615,4.842" />
        <path
           inkscape:connector-curvature="0"
           id="path1487"
           style="fill:#231f20;fill-opacity:1;fill-rule:nonzero;stroke:none"
           d="m 615.679,-27.177 v 12.485 h 1.89 v -1.895 c 0.488,0.886 0.937,1.471 1.35,1.752 0.412,0.283 0.865,0.424 1.361,0.424 0.715,0 1.442,-0.228 2.18,-0.682 l -0.74,-1.957 c -0.516,0.301 -1.032,0.451 -1.549,0.451 -0.461,0 -0.875,-0.138 -1.243,-0.417 -0.367,-0.278 -0.63,-0.664 -0.786,-1.158 -0.237,-0.752 -0.354,-1.575 -0.354,-2.468 v -6.535 z" />
        <path
           inkscape:connector-curvature="0"
           id="path1489"
           style="fill:#231f20;fill-opacity:1;fill-rule:nonzero;stroke:none"
           d="m 625.077,-20.712 c 0,-1.639 0.325,-2.834 0.975,-3.586 0.649,-0.753 1.463,-1.129 2.441,-1.129 0.971,0 1.784,0.374 2.442,1.123 0.658,0.748 0.986,1.922 0.986,3.522 0,1.528 -0.338,2.68 -1.016,3.457 -0.676,0.775 -1.492,1.164 -2.447,1.164 -0.939,0 -1.737,-0.383 -2.395,-1.147 -0.657,-0.764 -0.986,-1.899 -0.986,-3.404 m -1.75,-7.496 2.063,-0.313 c 0.086,-0.632 0.325,-1.093 0.715,-1.382 0.525,-0.391 1.241,-0.586 2.148,-0.586 0.977,0 1.732,0.196 2.265,0.588 0.531,0.392 0.891,0.941 1.079,1.647 0.109,0.432 0.16,1.337 0.152,2.718 -0.924,-1.094 -2.074,-1.641 -3.453,-1.641 -1.715,0 -3.042,0.619 -3.982,1.858 -0.939,1.238 -1.409,2.722 -1.409,4.455 0,1.191 0.216,2.29 0.647,3.297 0.43,1.006 1.055,1.785 1.874,2.333 0.818,0.548 1.78,0.823 2.884,0.823 1.472,0 2.687,-0.594 3.642,-1.781 v 1.5 h 1.953 v -10.789 c 0,-1.944 -0.197,-3.321 -0.593,-4.131 -0.396,-0.811 -1.023,-1.451 -1.88,-1.922 -0.859,-0.47 -1.914,-0.705 -3.168,-0.705 -1.489,0 -2.692,0.335 -3.609,1.005 -0.917,0.67 -1.359,1.678 -1.328,3.026" />
      </g>
      <g
         id="g2180">
        <path
           inkscape:connector-curvature="0"
           id="path1491"
           style="fill:#110f0d;fill-opacity:1;fill-rule:nonzero;stroke:none"
           d="m 454.905,395.754 c -6.334,-5.002 -1.335,-21.909 -6.251,-30.797 -4.334,-7.835 -3.084,1.125 -13.085,-5.542 -10.003,-6.669 -10.003,-14.503 -23.338,5.166 -11.631,17.157 -10.835,17.958 -8.007,29.606 -1.039,0.587 -2.108,1.073 -3.199,1.393 -2.076,0.526 -4.168,0.419 -5.999,-0.465 -1.839,-0.836 -3.468,-2.202 -4.855,-3.806 -0.705,-0.793 -1.36,-1.644 -1.962,-2.532 -0.359,-0.521 -0.715,-1.078 -1.038,-1.628 0.86,-2.911 1.135,-5.901 1.426,-8.752 0.289,-3.159 0.482,-6.233 0.963,-9.253 0.443,-3.039 1.079,-5.973 1.896,-8.989 0.743,-3.028 1.678,-5.998 2.563,-8.99 0.933,-2.974 1.9,-5.945 3.004,-8.873 1.077,-2.943 2.249,-5.851 3.623,-8.716 -2.125,2.387 -3.806,5.128 -5.406,7.891 -1.551,2.793 -2.943,5.677 -4.156,8.633 -1.261,2.939 -2.289,5.965 -3.268,9.004 -0.507,1.502 -0.89,3.093 -1.303,4.668 -0.222,0.785 -0.328,1.593 -0.496,2.389 -0.154,0.8 -0.32,1.599 -0.414,2.404 -0.49,3.216 -0.648,6.45 -0.776,9.581 -0.076,2.389 -0.214,4.71 -0.55,6.959 -3.55,0.334 -7.181,0.556 -10.738,0.622 -1.844,0.013 -3.681,0.009 -5.467,-0.139 l -1.325,-0.128 -1.314,-0.196 c -1.001,-0.173 -1.927,-0.134 -2.792,-0.007 0.015,-0.605 0.02,-1.233 0,-1.914 -0.501,-16.262 -8.252,-37.014 -10.502,-54.018 -2.251,-17.002 -35.02,-31.005 -58.517,-26.253 -23.497,4.75 -28.747,11.501 -28.247,23.003 0.146,3.378 0.471,7.815 0.807,12.571 0.273,-0.45 0.546,-0.9 0.815,-1.351 2.492,-4.135 4.859,-8.419 7.824,-12.421 2.908,-4.02 6.511,-7.748 10.919,-10.464 4.413,-2.698 9.551,-4.181 14.643,-4.523 4.967,-0.266 9.866,-0.262 14.831,0.147 4.932,0.497 9.935,1.324 14.642,3.285 4.692,1.869 9.101,5.126 11.66,9.588 1.262,2.22 2.114,4.626 2.551,7.072 0.434,2.448 0.508,4.919 0.32,7.348 -0.257,-2.422 -0.673,-4.813 -1.397,-7.084 -0.732,-2.264 -1.75,-4.405 -3.123,-6.267 -1.333,-1.887 -3.037,-3.462 -4.936,-4.729 -1.9,-1.271 -3.983,-2.276 -6.181,-3.009 -4.402,-1.452 -9.09,-2.169 -13.821,-2.426 -4.721,-0.281 -9.554,-0.252 -14.275,0.064 -4.594,0.24 -9.04,1.523 -12.987,3.782 -3.991,2.217 -7.344,5.524 -10.398,9.134 -3.031,3.646 -5.743,7.658 -8.649,11.591 -0.739,0.97 -1.482,1.94 -2.256,2.89 0.74,10.78 1.374,22.489 0.046,27.059 -2.772,9.533 65.475,34.255 75.977,29.505 9.04,-4.089 17.888,0.157 19.859,-8.949 0.094,-0.016 0.19,-0.038 0.282,-0.052 0.809,-0.107 1.581,-0.088 2.177,0.049 l 1.484,0.301 1.496,0.217 c 1.986,0.223 3.942,0.31 5.887,0.297 3.307,-0.006 6.55,-0.248 9.813,-0.64 -0.697,2.211 -1.709,4.34 -3.006,6.36 -1.576,2.648 -3.71,4.96 -5.736,7.418 2.61,-1.798 5.165,-3.771 7.297,-6.245 0.576,-0.581 1.048,-1.25 1.531,-1.919 l 0.728,-1.002 c 0.242,-0.336 0.426,-0.71 0.643,-1.066 0.254,-0.443 0.505,-0.887 0.738,-1.343 0.674,0.83 1.388,1.624 2.173,2.387 1.797,1.671 3.894,3.177 6.371,3.939 1.231,0.371 2.546,0.532 3.826,0.431 1.285,-0.083 2.512,-0.473 3.629,-0.985 1.062,-0.527 2.007,-1.195 2.861,-1.945 0.356,1.483 0.736,3.125 1.123,4.998 l 1.667,0.666 c 0,0 15.67,3.668 21.959,11.774 6.29,8.108 1.902,8.001 19.188,6.162 15.212,-1.619 12.863,-17.936 6.528,-22.936 m -28.009,-59.781 c -0.25,-7.501 -20.749,-40.903 -22.25,-53.155 -1.499,-12.252 1.501,-20.003 0.75,-25.004 -0.75,-5.001 -4.5,-3.751 -7.25,-2.5 -2.75,1.25 -1.249,8.968 -2.625,16.861 -1.375,7.892 -7.127,-0.609 -7.376,5.392 -0.249,6.002 -9.502,-5.751 -9.752,-11.001 -0.25,-5.252 -1.363,-14.002 -2.75,-13.003 -18.519,13.336 -13.002,28.255 -2.5,36.506 10.501,8.251 27.753,31.756 34.254,42.507 6.501,10.752 19.749,10.898 19.499,3.397 M 228.36,76.97 c -8.676,10.393 -16.244,21.691 -22.896,33.486 -13.237,23.662 -22.801,49.221 -30.07,75.288 l -2.604,9.819 -2.382,9.875 -2.131,9.931 -1.917,9.972 c -2.42,13.325 -4.305,26.743 -5.703,40.211 -2.768,26.934 -3.694,54.07 -2.596,81.133 1.17,27.055 4.169,54.047 9.341,80.64 5.235,26.565 12.489,52.802 22.69,77.919 10.171,25.09 23.112,49.198 39.734,70.626 8.335,10.676 17.581,20.65 27.757,29.576 10.16,8.936 21.281,16.783 33.175,23.194 -11.737,-6.692 -22.662,-14.74 -32.65,-23.784 -9.984,-9.057 -19.015,-19.129 -27.123,-29.877 -16.278,-21.479 -28.911,-45.548 -38.758,-70.587 -9.801,-25.083 -17.071,-51.131 -22.149,-77.583 -5.054,-26.465 -7.949,-53.329 -9.023,-80.246 -1.169,-26.917 -0.349,-53.922 2.319,-80.734 2.681,-26.81 7.346,-53.434 14.247,-79.479 6.961,-26.004 16.229,-51.512 29.13,-75.183 6.419,-11.836 13.757,-23.198 22.222,-33.69 1.036,-1.331 2.179,-2.57 3.264,-3.86 1.116,-1.261 2.161,-2.588 3.334,-3.797 2.342,-2.423 4.575,-4.957 7.073,-7.224 1.223,-1.162 2.429,-2.341 3.666,-3.487 l 3.844,-3.29 1.925,-1.645 2.014,-1.532 4.031,-3.068 C 247.019,57.271 237.043,66.591 228.36,76.97 m 100.06,544.169 c -10.372,-6.464 -20.316,-13.575 -29.359,-21.723 -9.138,-8.035 -17.294,-17.142 -24.425,-26.956 -14.331,-19.632 -24.406,-42.044 -31.69,-65.215 -7.426,-23.18 -12.184,-47.15 -17.876,-70.932 -2.874,-11.886 -5.933,-23.762 -9.928,-35.357 -2.131,-5.748 -4.328,-11.479 -7.072,-16.964 -2.564,-5.569 -5.853,-10.768 -9.327,-15.785 6.595,10.307 11.344,21.614 15.005,33.217 3.686,11.607 6.478,23.484 9.071,35.403 2.556,11.932 5.066,23.89 7.774,35.823 2.749,11.922 5.801,23.801 9.495,35.504 3.744,11.681 8.125,23.193 13.505,34.252 5.405,11.036 11.719,21.665 19.202,31.428 7.45,9.774 15.892,18.811 25.306,26.684 9.437,7.838 19.606,14.74 30.319,20.621 m 10.853,-23.723 c 2.79,2.562 5.977,4.681 9.381,6.265 -1.617,-0.956 -3.209,-1.946 -4.658,-3.129 -1.485,-1.129 -2.867,-2.386 -4.175,-3.707 -2.597,-2.667 -4.882,-5.618 -6.882,-8.748 -4.041,-6.244 -7.16,-13.042 -10.001,-19.938 -2.797,-6.923 -5.356,-13.96 -7.873,-21.029 -2.544,-7.059 -5.125,-14.126 -7.927,-21.126 -2.852,-6.977 -5.925,-13.894 -9.534,-20.557 -3.639,-6.637 -7.73,-13.079 -12.621,-18.903 -4.854,-5.841 -10.471,-11.083 -16.778,-15.303 -6.334,-4.167 -13.256,-7.397 -20.494,-9.424 3.514,1.333 6.933,2.873 10.231,4.624 3.291,1.763 6.441,3.77 9.415,6.002 5.982,4.422 11.225,9.753 15.806,15.575 4.554,5.851 8.504,12.167 11.933,18.766 3.468,6.581 6.48,13.412 9.263,20.346 5.658,13.832 10.328,28.129 16.433,41.943 3.059,6.892 6.521,13.675 10.941,19.85 2.229,3.069 4.741,5.942 7.54,8.493 m 61.25,-430.2 c -0.478,-0.687 -4.542,-2.303 -9.514,-2.416 -1.09,-0.029 -1.903,0.262 -2.489,0.875 -1.452,1.518 -1.226,4.798 -1.077,6.968 0.04,0.595 0.076,1.122 0.076,1.532 0,0.434 -0.013,1.032 -0.029,1.736 -0.058,2.584 -0.169,7.457 0.432,9.964 0.192,0.41 0.415,0.847 0.658,1.3 0.133,0.25 0.271,0.506 0.413,0.767 0.337,0.499 0.713,1.074 1.107,1.677 1.119,1.724 3.204,4.933 3.858,5.06 0.347,0 0.947,-0.298 1.582,-0.698 -0.006,-0.012 -0.012,-0.024 -0.019,-0.037 l 0.175,-0.065 c 0.563,-0.365 1.14,-0.797 1.583,-1.17 0.428,-0.707 3.002,-7.793 3.244,-10.822 0.117,-1.462 0.039,-4.608 -0.038,-7.652 -0.108,-4.379 -0.138,-6.369 0.038,-7.019 m -1.335,-25.149 c -0.161,-0.889 -1.328,-2.756 -2.024,-3.792 -1.254,1.053 -3.484,3.206 -3.484,4.579 0,0.464 -0.041,1.235 -0.091,2.158 -0.111,2.07 -0.406,7.57 0.229,8.092 0.846,0.023 1.65,0.461 2.359,0.847 0.507,0.277 1.029,0.558 1.36,0.558 0.022,0 0.043,0 0.065,-0.003 0.72,-1.064 1.855,-10.964 1.586,-12.439 m -87.887,67.485 c -1.042,-0.515 -1.879,-1.402 -2.403,-2.297 -0.524,-0.899 -0.817,-1.803 -1.011,-2.668 -0.258,-1.196 -0.333,-2.336 -0.322,-3.446 -1.104,0.287 -1.968,0.307 -2.672,0.319 -0.623,0.011 -1.073,0.019 -1.455,0.21 -0.736,0.365 -1.525,-0.162 -2.101,-0.549 -0.005,-0.003 -0.011,-0.008 -0.017,-0.011 0.102,0.454 0.342,1.282 0.866,2.781 0.734,2.096 6.684,20.168 -1.488,32.33 4.933,-2.573 10.286,-9.612 17.345,-22.758 -0.152,-0.272 -0.293,-0.556 -0.456,-0.816 -0.679,-1.057 -1.534,-1.992 -2.37,-2.381 -0.416,-0.192 -0.785,-0.23 -1.118,-0.179 l -0.125,0.017 c -0.042,0.005 -0.224,0 -0.329,-0.001 -0.247,0 -0.5,-0.019 -0.763,-0.064 -0.519,-0.066 -1.061,-0.245 -1.581,-0.487 m -5.747,-28.33 c -0.926,0.179 -4.949,3.089 -8.641,7.067 -2.253,2.426 -0.78,4.811 0.52,6.911 0.535,0.863 0.997,1.611 1.107,2.273 0.042,0.253 1.086,0.652 2.999,0.652 0.582,0 1.247,-0.037 1.988,-0.127 1.744,-0.211 3.548,-0.719 4.555,-1.453 0.174,-0.881 0.39,-1.751 0.643,-2.609 -0.57,-3.742 -2.387,-11.665 -3.171,-12.714 m 10.007,10.831 c 0.297,0 0.571,-0.041 0.809,-0.134 1.746,-0.67 4.1,-2.27 4.829,-2.78 -0.273,-3.949 -1.34,-12.02 -1.977,-12.706 -0.76,-0.257 -6.743,1.058 -9.547,3.176 -0.889,0.672 -1.325,1.319 -1.296,1.919 0.104,2.194 0.818,4.209 1.339,5.682 0.303,0.853 0.541,1.524 0.605,2.044 0.031,0.246 0.535,0.91 1.755,1.641 1.059,0.633 2.421,1.158 3.483,1.158 m 7.06,-45.44 c -1.18,-2.189 -2.387,-3.515 -2.859,-3.991 -1.341,0.492 -6.956,2.6 -9.085,4.157 -1.673,1.225 -2.297,9.087 -2.299,13.755 v 0.024 c 0.085,0.157 0.523,0.238 1.205,0.238 1.158,0 3.016,-0.235 5.034,-0.73 1.933,-0.745 7.147,-2.949 8.042,-4.166 1.052,-1.431 1.43,-6.56 -0.038,-9.287 m -23.149,18.397 c 2.061,-2.906 4.026,-3.127 5.198,-3.257 0.878,-0.1 0.918,-0.15 0.965,-0.523 0.148,-1.178 -2.764,-4.665 -4.96,-6.859 -1.096,0.017 -6.465,0.234 -8.522,2.977 -1.544,2.06 -0.674,7.316 -0.473,8.402 0.896,0.574 5.135,3.006 7.792,-0.74 m 48.667,15.641 c 0.09,-1.731 -0.234,-8.269 -0.448,-12.595 -0.063,-1.265 -0.118,-2.377 -0.155,-3.188 -4.554,0.641 -9.513,1.706 -9.944,2.389 -0.539,1.182 -0.956,11.429 -0.956,13.794 0,1.345 3.032,4.803 6.376,4.803 3.168,0 5.011,-3.022 5.127,-5.203 m 12.852,5.287 c 0.863,-0.566 5.582,-5.72 6.034,-7.984 0.197,-0.979 0.358,-4.416 0.01,-15.225 0,-0.018 -0.001,-0.038 -0.002,-0.056 -4.547,0.667 -11.106,1.716 -11.934,2.078 -0.612,0.395 -1.564,4.774 -2.078,8.652 0.568,2.549 2.101,9.095 2.682,10.16 0.661,1.212 4.679,2.69 5.288,2.375 m -1.835,-33.05 c 0.266,0.31 0.587,0.466 0.984,0.477 2.518,0.073 5.454,-0.449 6.362,-0.626 l 2.157,-6.869 c -0.295,-0.948 -1.903,-6.135 -2.235,-7.024 -0.038,-0.099 -0.072,-0.202 -0.106,-0.305 -0.094,-0.29 -0.193,-0.591 -0.337,-0.632 -0.184,-0.058 -0.842,-0.004 -2.902,1.651 -3.552,2.85 -4.69,7.424 -4.693,7.424 -0.157,1.21 -0.322,4.627 0.77,5.904 m -32.096,-7.996 c 0.215,1.156 1.368,7.343 1.853,9.983 0.038,0.204 0.15,0.495 0.702,0.672 2.166,0.706 7.35,-1.165 8.301,-1.776 0.401,-3 0.971,-7.439 0.973,-7.863 -0.141,-0.826 -4.17,-8.551 -5.338,-9.436 -0.84,0.019 -4.01,4.339 -6.491,8.42 m 56.509,17.586 c -1.3,-1.112 -9.5,-2.292 -11.335,-0.565 -2.006,1.888 -2.798,6.9 -2.48,8.274 0.134,0.582 0.174,1.586 0.227,2.859 0.097,2.36 0.232,5.596 1.087,6.995 1.528,2.5 5.664,7.04 6.453,7.151 0.542,-0.146 3.019,-2.561 5.003,-4.717 l 0.014,-0.014 c 0.591,-0.589 0.638,-4.569 0.676,-7.769 0.024,-2.012 0.05,-4.092 0.182,-5.805 0.133,-1.749 0.348,-2.983 0.503,-3.883 0.293,-1.677 0.323,-1.971 -0.33,-2.526 m -12.36,-9.098 h 5.681 c 1.208,0 3.336,-2.415 3.336,-3.5 0,-2.597 -0.313,-7.863 -1.066,-8.868 l -0.027,-0.038 c -0.814,-1.334 -1.835,-2.553 -2.091,-2.629 -0.885,0.452 -5.669,7.265 -5.819,8.995 -0.13,1.506 -0.05,4.803 -0.014,6.04 m 18.724,-7.983 c -0.48,-1.496 -0.827,-2.576 -0.906,-3.012 -0.161,-0.889 -1.327,-2.756 -2.025,-3.791 -1.253,1.05 -3.483,3.203 -3.483,4.577 0,0.767 -0.271,2.215 -0.585,3.891 -0.372,1.987 -1.058,5.643 -0.699,6.321 l 0.636,0.019 c 5.259,0.168 8.35,0.181 9.204,0.041 0.098,-1.058 -1.404,-5.744 -2.142,-8.046 m -56.771,36.814 0.055,0.051 c -0.228,-3.816 -0.928,-11.577 -1.143,-13.908 -1.604,0.687 -5.901,2.684 -7.532,4.986 -1.507,2.127 -0.968,5.267 -0.446,8.304 0.165,0.959 0.321,1.865 0.41,2.731 0.257,2.476 1.893,4.38 3.141,5.332 0.02,-0.034 0.04,-0.072 0.06,-0.105 0.989,-1.619 1.956,-2.769 2.863,-3.96 0.909,-1.166 1.772,-2.293 2.592,-3.431 M 387.737,69.025 c -1.655,0.315 -2.426,0.906 -3.32,1.59 -1.791,1.372 -3.816,2.924 -13.229,2.252 -4.508,-0.326 -7.484,-2.544 -10.11,-4.502 -5.754,-4.288 -10.297,-7.681 -27.842,9.528 -3.437,3.369 -6.217,6.054 -8.594,8.244 -3.629,4.685 -7.327,9.201 -11.012,13.736 -4.355,5.295 -8.719,10.607 -13.548,15.667 -4.816,5.046 -10.217,9.809 -16.364,13.449 -6.141,3.64 -12.927,6.048 -19.843,7.055 6.128,-3.383 11.955,-6.819 17.196,-10.962 5.261,-4.107 9.986,-8.796 14.679,-13.693 4.688,-4.898 9.384,-9.965 14.442,-14.724 0.401,-0.376 0.808,-0.748 1.214,-1.122 -2.621,1.138 -5.585,2.075 -9.655,3.363 -7.634,2.415 -19.168,6.063 -39.686,14.597 -41.05,17.073 -42.346,19.56 -43.847,22.437 -0.588,1.128 -1.255,2.409 -4.052,4.506 l -1.091,0.812 c -6.629,4.929 -6.629,4.929 -2.222,21.58 1.207,4.565 2.71,10.248 4.499,17.596 0.111,0.456 0.209,0.906 0.312,1.358 1.8,2.804 3.348,5.71 4.773,8.686 1.607,3.421 3.029,6.95 4.112,10.628 1.08,3.674 1.818,7.52 1.913,11.415 0.08,3.889 -0.462,7.815 -1.928,11.372 -0.181,-3.84 -0.509,-7.482 -1.191,-11.056 -0.655,-3.573 -1.591,-7.077 -2.63,-10.598 l -3.218,-10.648 c -0.087,-0.301 -0.169,-0.606 -0.255,-0.907 2.646,20.903 -2.591,37.951 -6.568,50.873 -3.819,12.411 -6.124,19.901 1.346,22.282 2.069,0.646 4.286,-3.755 6.635,-8.427 1.734,-3.447 3.621,-7.184 5.843,-9.708 0.015,-0.359 0.034,-0.728 0.064,-1.108 0.203,-3.055 1.383,-6.158 2.983,-8.675 0.812,-1.294 1.647,-2.461 2.57,-3.61 0.909,-1.15 1.907,-2.252 2.984,-3.286 1.085,-1.023 2.269,-1.991 3.63,-2.75 0.71,-0.345 1.416,-0.703 2.235,-0.841 0.205,-0.029 0.417,-0.042 0.618,-0.059 0.213,0.012 0.421,0.015 0.624,0.06 0.412,0.098 0.78,0.323 1,0.625 -0.732,-0.237 -1.326,0.04 -1.845,0.409 -0.521,0.377 -0.989,0.857 -1.425,1.356 -0.875,1.019 -1.679,2.12 -2.456,3.256 -1.534,2.258 -3.086,4.658 -4.529,6.935 -1.012,1.616 -1.857,3.212 -2.533,4.912 1.473,-0.421 2.994,-0.187 4.524,0.701 4.575,2.661 10.965,5.427 15.431,3.501 2.461,-1.061 4.147,-3.477 5.015,-7.183 1.76,-7.522 -1.346,-17.569 -4.35,-27.286 -1.613,-5.215 -3.28,-10.606 -4.157,-15.518 -1.646,-9.219 6.919,-29.137 20.025,-40.05 5.619,-4.679 11.42,-7.117 17.11,-7.259 l -0.338,-1.236 c -0.231,-0.875 -0.451,-1.772 -0.595,-2.716 -0.14,-0.941 -0.234,-1.943 -0.016,-3.027 0.116,-0.54 0.342,-1.111 0.734,-1.584 0.36,-0.477 0.977,-0.81 1.368,-0.97 0.731,-0.28 1.416,-0.727 2.023,-1.283 1.217,-1.12 2.14,-2.648 2.687,-4.307 -0.227,1.737 -0.838,3.472 -1.941,4.972 -0.551,0.747 -1.243,1.424 -2.066,1.945 -0.668,0.432 -0.791,0.833 -0.824,1.502 0.02,1.342 0.728,2.929 1.446,4.435 l 1.163,2.356 c 0.023,0.049 0.047,0.101 0.07,0.151 1.457,0.225 2.901,0.594 4.329,1.129 4.135,1.549 7.567,-0.099 11.343,-2.89 -0.342,-0.756 -0.626,-1.551 -0.83,-2.392 -0.203,-0.86 -0.334,-1.779 -0.213,-2.75 0.11,-0.958 0.49,-1.947 1.14,-2.685 0.92,-0.961 1.558,-2.268 1.987,-3.684 0.416,-1.418 0.668,-2.922 0.733,-4.444 0.267,1.505 0.355,3.053 0.251,4.623 -0.119,1.56 -0.472,3.199 -1.362,4.694 -0.486,0.98 -0.283,2.118 0.305,3.279 0.2,0.407 0.458,0.819 0.735,1.221 0.251,-0.202 0.504,-0.405 0.761,-0.614 3.986,-3.218 8.504,-6.848 14.457,-8.852 -10e-4,-0.003 -10e-4,-0.005 -0.002,-0.007 -0.183,-0.897 -0.315,-2.086 0.077,-3.193 0.384,-1.104 1.098,-1.851 1.772,-2.458 0.687,-0.625 1.428,-1.093 2.051,-1.559 0.631,-0.49 1.26,-0.999 1.806,-1.584 1.088,-1.152 2.062,-2.555 2.195,-4.24 0.214,1.688 -0.493,3.403 -1.406,4.853 -0.455,0.742 -1.007,1.413 -1.575,2.072 -0.596,0.66 -1.173,1.219 -1.61,1.822 -0.449,0.597 -0.778,1.218 -0.817,1.735 -0.05,0.511 0.103,1.03 0.388,1.714 0.016,0.034 0.034,0.075 0.051,0.11 3.665,-0.642 9.033,-0.883 15.272,-0.91 0.083,-0.555 0.216,-1.124 0.463,-1.694 0.351,-0.829 1.025,-1.612 1.82,-2.022 0.24,-0.141 0.25,-0.145 0.372,-0.206 0.109,-0.039 0.2,-0.111 0.285,-0.193 0.195,-0.136 0.349,-0.356 0.501,-0.585 0.301,-0.47 0.479,-1.083 0.599,-1.71 0.235,-1.268 0.215,-2.64 0.047,-3.985 0.49,1.271 0.858,2.608 0.952,4.042 0.038,0.715 0.026,1.465 -0.217,2.238 -0.128,0.38 -0.277,0.78 -0.549,1.134 -0.122,0.187 -0.258,0.365 -0.436,0.515 -0.145,0.142 -0.399,0.348 -0.432,0.405 -0.536,0.503 -0.652,1.208 -0.578,2.061 4.939,0.023 10.306,0.152 15.729,0.306 -0.021,-0.031 -0.039,-0.066 -0.06,-0.097 -0.095,-0.097 -0.139,-0.185 -0.344,-0.357 -0.678,-0.608 -1.324,-1.25 -1.932,-1.929 -1.202,-1.36 -2.284,-2.894 -2.865,-4.654 -0.302,-0.872 -0.397,-1.817 -0.323,-2.716 0.065,-0.914 0.452,-1.744 0.877,-2.49 -0.278,0.824 -0.48,1.663 -0.378,2.495 0.095,0.823 0.333,1.611 0.744,2.319 0.801,1.422 2.007,2.583 3.312,3.585 0.659,0.498 1.346,0.958 2.056,1.384 0.148,0.077 0.425,0.28 0.66,0.461 0.228,0.193 0.445,0.406 0.635,0.632 0.376,0.453 0.663,0.953 0.881,1.462 0.541,0.016 1.082,0.03 1.621,0.048 3.323,0.096 6.734,0.198 10.082,0.277 0.146,-0.371 0.283,-0.733 0.404,-1.088 0.237,-0.704 0.375,-1.353 0.343,-1.867 -0.04,-0.49 -0.285,-0.968 -0.809,-1.44 -1.541,-1.331 -2.192,-3.038 -2.72,-4.66 -0.251,-0.822 -0.43,-1.659 -0.552,-2.5 -0.101,-0.836 -0.216,-1.701 -0.013,-2.525 -0.035,0.835 0.243,1.633 0.499,2.407 0.277,0.775 0.607,1.527 0.99,2.239 0.769,1.404 1.75,2.772 2.946,3.402 0.838,0.466 1.73,1.341 2.088,2.481 0.337,1.119 0.266,2.162 0.165,3.079 -0.025,0.185 -0.057,0.359 -0.083,0.54 3.129,0.058 6.155,0.089 8.954,0.073 0.534,-0.605 1.036,-1.231 1.471,-1.868 0.398,-0.587 0.742,-1.214 0.894,-1.728 0.093,-0.27 0.088,-0.444 0.095,-0.554 -0.005,-0.019 -0.003,-0.045 0.003,-0.076 -0.015,-0.018 -0.03,-0.037 -0.036,-0.065 0.018,-0.018 -0.06,-0.089 -0.14,-0.159 l -0.222,-0.201 c -1.211,-1.086 -2.432,-2.235 -3.457,-3.558 -0.501,-0.672 -0.966,-1.399 -1.216,-2.223 -0.27,-0.811 -0.154,-1.798 0.444,-2.372 -0.458,0.7 -0.347,1.542 0.021,2.186 0.363,0.659 0.906,1.218 1.484,1.727 1.186,1.006 2.519,1.825 3.902,2.622 l 0.263,0.154 c 0.084,0.049 0.169,0.092 0.323,0.224 0.134,0.114 0.269,0.232 0.391,0.36 0.101,0.143 0.199,0.295 0.29,0.452 0.315,0.626 0.378,1.285 0.335,1.802 -0.072,1.077 -0.38,1.948 -0.707,2.784 -0.061,0.146 -0.13,0.285 -0.194,0.428 6.169,-0.17 10.611,-0.687 11.46,-1.857 0.106,-0.145 0.123,-0.28 0.057,-0.462 -0.93,-2.603 -1.39,-2.613 -1.611,-2.62 -1.091,-0.027 -1.451,-0.388 -2.453,-8.321 -1.737,-13.748 -1.728,-16.957 2.212,-35.67 1.725,-8.196 1.282,-13.696 -1.32,-16.348 -1.675,-1.708 -4.319,-2.237 -7.849,-1.561 m 16.492,99.387 c -0.333,2.823 -0.765,14.94 -0.995,23.224 0.034,0.042 0.079,0.097 0.124,0.156 0.176,0.203 0.372,0.425 0.574,0.664 0.276,0.321 0.593,0.726 0.903,1.19 1.379,1.729 3.227,4.03 4.116,5.067 0.108,0.123 0.166,0.115 0.213,0.106 0.81,-0.125 2.421,-2.808 3.477,-5.266 -0.103,-1.344 -1.036,-13.367 -1.734,-16.776 -0.606,-2.974 -5.143,-7.196 -6.678,-8.365 m 14.045,17.943 c 0,-0.861 -1.033,-4.955 -1.504,-5.306 -0.541,-0.049 -1.361,0.036 -1.858,0.098 v 16.466 c 0.079,0.857 0.192,1.696 0.326,2.471 l 0.024,-0.002 c -0.004,0.019 -0.008,0.045 -0.012,0.065 0.357,2.038 0.856,3.599 1.248,3.681 1.078,-0.341 2.272,-2.143 2.726,-2.957 -0.109,-1.565 -0.95,-13.79 -0.95,-14.516 m 41.003,247.924 c 0.686,-2.232 1.591,-4.246 2.737,-6.797 1.095,-2.438 2.458,-5.472 4.092,-9.737 3.265,-8.519 -0.426,-27.243 -2.367,-28.333 -2.404,-1.352 -8.025,-4.512 -5.849,-24.553 -3.738,-6.331 -5.262,-10.099 -4.976,-12.348 -0.037,0.004 -0.074,0.011 -0.11,0.014 -3.932,0.343 -7.359,-0.741 -10.339,-2.252 -2.965,-1.579 -5.594,-3.639 -7.563,-6.445 3.404,0.258 6.404,0.843 9.306,1.243 2.866,0.42 5.625,0.715 7.887,0.492 0.553,-0.06 1.086,-0.139 1.56,-0.28 0.235,-0.065 0.487,-0.11 0.694,-0.208 l 0.335,-0.122 c 0.097,-0.057 0.202,-0.105 0.31,-0.15 0.836,-0.389 1.613,-0.985 2.375,-1.906 0.576,-0.694 1.1,-1.559 1.601,-2.517 -0.411,-3.228 -0.729,-6.642 -1.034,-9.963 -1.041,-11.375 -2.121,-23.139 -7.102,-23.851 -0.762,-0.107 -1.668,-0.209 -2.689,-0.323 -8.62,-0.961 -24.665,-2.749 -34.035,-16.967 -6.286,-13.805 -3.082,-22.097 -0.963,-27.586 1.008,-2.609 1.737,-4.494 0.979,-5.887 -2.48,-4.559 -7.417,-7.273 -7.467,-7.301 l -0.138,-0.075 -0.071,-0.14 c -1.524,-3.049 0.478,-7.548 3.509,-14.36 0.522,-1.174 1.075,-2.415 1.647,-3.734 1.085,-2.5 2.283,-4.921 3.339,-7.054 2.517,-5.085 4.691,-9.479 3.267,-10.911 -1.302,-1.308 -1.866,-3.326 -2.319,-4.944 -0.25,-0.888 -0.551,-1.955 -0.873,-2.288 -0.01,0.188 -0.011,0.366 -0.023,0.553 -0.054,0.992 -0.148,2.016 -0.301,3.067 -0.173,1.058 -0.338,2.131 -0.967,3.456 -0.102,0.181 -0.216,0.365 -0.331,0.539 -0.116,0.173 -0.214,0.336 -0.427,0.535 -0.188,0.186 -0.39,0.36 -0.593,0.513 -0.08,0.047 -0.116,0.055 -0.183,0.083 -0.249,0.107 -0.57,0.37 -0.874,0.634 -0.615,0.558 -1.216,1.239 -1.791,1.938 -0.575,0.706 -1.13,1.443 -1.659,2.202 -0.514,0.767 -1.07,1.522 -1.432,2.375 0.041,-0.947 0.304,-1.869 0.522,-2.789 0.236,-0.92 0.505,-1.834 0.815,-2.749 0.315,-0.915 0.656,-1.826 1.129,-2.756 0.254,-0.47 0.504,-0.939 0.942,-1.45 l 0.336,-0.374 c -0.047,-0.015 -0.091,-0.011 -0.121,0.006 -0.035,0.045 -0.044,-0.008 -0.056,-0.041 -0.012,-0.033 -0.019,-0.051 -0.022,-0.079 -0.017,-0.427 -0.105,-1.231 -0.29,-2.011 -0.177,-0.793 -0.397,-1.611 -0.662,-2.453 -0.26,-0.839 -0.542,-1.68 -0.843,-2.552 l -0.453,-1.338 c -0.057,-0.174 -0.115,-0.357 -0.173,-0.548 -0.743,-0.519 -1.45,-1.101 -2.076,-1.748 -0.091,0.206 -0.183,0.408 -0.28,0.598 l -0.621,0.97 c -0.212,0.306 -0.442,0.548 -0.663,0.819 l -0.335,0.392 -0.268,0.274 c -0.181,0.179 -0.349,0.373 -0.526,0.56 -0.342,0.386 -0.683,0.782 -1.004,1.2 -1.296,1.661 -2.426,3.537 -3.291,5.53 -0.423,0.997 -0.792,2.03 -0.984,3.089 -0.095,0.529 -0.147,1.066 -0.095,1.595 0.062,0.515 0.246,1.059 0.752,1.355 -0.573,-0.127 -1.001,-0.669 -1.234,-1.221 -0.234,-0.562 -0.352,-1.159 -0.423,-1.751 -0.137,-1.192 -0.079,-2.384 0.047,-3.565 0.273,-2.361 0.854,-4.686 1.725,-6.964 0.216,-0.572 0.461,-1.137 0.721,-1.701 0.137,-0.281 0.265,-0.563 0.414,-0.841 l 0.216,-0.416 0.127,-0.315 c 0.397,-0.812 0.497,-1.665 0.282,-1.746 -0.098,-0.04 -0.157,0.063 -0.239,0.055 -0.134,-0.03 -0.295,-0.144 -0.665,-0.363 -0.367,-0.234 -0.801,-0.469 -1.438,-0.953 -0.101,-0.083 -0.213,-0.173 -0.328,-0.269 -2.347,1.016 -4.486,0.602 -6.293,-0.426 -0.044,0.216 -0.095,0.426 -0.156,0.631 -0.167,0.407 -0.301,0.85 -0.531,1.196 l -0.333,0.528 -0.168,0.251 -0.139,0.166 -0.557,0.663 c -1.466,1.728 -2.876,3.366 -3.89,5.22 -0.497,0.924 -0.889,1.902 -0.973,2.936 -0.093,1.027 0.198,2.118 0.863,3.05 -0.898,-0.686 -1.605,-1.748 -1.859,-2.968 -0.269,-1.217 -0.16,-2.484 0.078,-3.673 0.496,-2.39 1.484,-4.595 2.382,-6.674 0.582,-1.223 0.558,-1.595 0.399,-2.051 -0.171,-0.43 -0.535,-0.99 -1.115,-1.655 -0.574,-0.661 -1.315,-1.378 -2.125,-2.187 -0.403,-0.41 -0.831,-0.837 -1.268,-1.324 -0.934,0.033 -2.046,-0.042 -3.453,-0.496 -0.751,-0.241 -1.403,-0.461 -1.99,-0.659 -0.442,-0.148 -0.842,-0.282 -1.218,-0.405 0.254,0.455 0.509,0.91 0.758,1.392 0.629,1.285 1.309,2.72 1.511,4.643 0.071,0.976 -0.048,2.081 -0.502,3.052 -0.109,0.237 -0.249,0.451 -0.379,0.669 l -0.198,0.308 -0.15,0.186 -0.592,0.732 c -1.563,1.941 -3.067,3.91 -4.372,5.999 -0.646,1.048 -1.246,2.122 -1.696,3.253 -0.407,1.114 -0.824,2.372 -0.229,3.526 -0.446,-0.456 -0.681,-1.125 -0.757,-1.779 -0.083,-0.66 -0.055,-1.326 0.015,-1.98 0.151,-1.311 0.47,-2.584 0.842,-3.833 0.754,-2.495 1.741,-4.901 2.777,-7.258 l 0.387,-0.876 0.097,-0.217 c 0.017,-0.055 0.007,-0.074 0.014,-0.111 10e-4,-0.066 0.025,-0.123 0.022,-0.181 -0.013,-0.216 -0.098,-0.398 -0.209,-0.661 -0.272,-0.556 -0.846,-1.363 -1.589,-2.167 -1.489,-1.628 -3.384,-3.319 -5.232,-5.108 l 0.18,-0.144 c -2.826,0.285 -5.874,0.762 -8.629,1.348 0,0.032 0.004,0.069 0.004,0.101 0.006,0.826 -0.085,1.494 -0.171,2.085 l -0.258,1.598 -0.102,0.762 c -0.03,0.506 -0.112,0.97 -0.228,1.372 -0.484,1.599 -1.203,2.603 -1.858,3.595 -1.336,1.929 -2.661,3.599 -3.612,5.509 -0.954,1.876 -1.462,4.037 -0.987,6.277 -1.132,-1.971 -1.38,-4.52 -0.969,-6.883 0.379,-2.374 1.25,-4.631 1.891,-6.703 0.315,-1.015 0.567,-2.058 0.492,-2.666 -0.015,-0.148 -0.06,-0.242 -0.098,-0.295 l -0.141,-0.915 -0.22,-1.755 c -0.071,-0.526 -0.156,-0.978 -0.268,-1.264 -0.006,-0.017 -0.012,-0.027 -0.019,-0.042 -1.909,-0.42 -3.743,-1.41 -5.127,-2.157 -0.694,-0.376 -1.293,-0.7 -1.712,-0.854 -1.02,-0.37 -2.941,-0.196 -5.194,1.059 -0.951,0.852 -1.906,1.678 -2.835,2.463 -0.696,0.591 -1.384,1.173 -1.989,1.718 -0.03,0.037 -0.061,0.069 -0.092,0.107 -0.492,0.605 -0.957,1.06 -1.404,1.411 -0.056,0.067 -0.101,0.123 -0.129,0.15 -0.082,0.07 -0.193,0.083 -0.121,0.447 0.06,0.332 0.332,0.836 0.666,1.33 l 1.273,1.783 c 0.877,1.247 1.756,2.572 2.469,4.024 0.715,1.448 1.235,3.033 1.422,4.63 0.392,3.221 -0.483,6.228 -1.647,8.914 0.501,-2.899 0.55,-5.898 -0.433,-8.423 -0.955,-2.539 -2.844,-4.43 -4.996,-6.289 l -0.821,-0.704 c -0.283,-0.245 -0.539,-0.442 -0.868,-0.765 -0.624,-0.606 -1.269,-1.271 -1.827,-2.273 -0.423,-0.715 -0.748,-1.748 -0.781,-2.799 -1.447,-0.564 -3.001,-1.013 -5.202,-0.277 -2.458,0.818 -4.085,1.729 -5.428,2.655 -0.858,1.443 -1.584,2.983 -2.083,4.54 -0.35,1.095 -0.58,2.212 -0.608,3.172 -0.014,0.477 0.027,0.906 0.098,1.229 0.083,0.316 0.158,0.505 0.287,0.682 0.081,0.073 0.167,0.17 0.315,0.233 0.066,0.039 0.148,0.072 0.242,0.095 0.063,0.015 0.05,0.026 0.177,0.05 l 0.38,0.075 c 1.014,0.216 1.933,0.733 2.603,1.352 1.111,1.051 1.713,2.237 2.149,3.402 0.035,-0.064 0.067,-0.123 0.099,-0.188 l 0.809,-1.547 0.134,1.74 c 0.043,0.568 -0.078,1.442 -0.337,2.535 0.454,2.186 0.575,4.357 0.479,6.506 -0.302,-1.344 -0.706,-2.673 -1.205,-3.941 -2.949,9.232 -11.487,26.577 -18.927,31.121 -12.153,7.422 -17.649,5.903 -24.605,3.979 -6.175,-1.71 -13.862,-3.835 -29.04,0.08 -8.107,2.09 -13.05,5.026 -15.11,8.978 -2.922,5.605 -0.213,12.867 3.22,22.062 2.607,6.984 5.561,14.9 6.511,23.681 l 0.008,0.085 -0.019,0.084 c -1.52,6.347 -4.602,10.189 -8.586,12.539 1.589,-0.225 3.146,-0.525 4.55,-1.193 1.427,-0.658 2.702,-1.554 3.79,-2.635 1.064,-1.114 1.972,-2.36 2.766,-3.686 0.778,-1.344 1.435,-2.766 2.032,-4.221 1.2,-2.915 2.173,-5.967 3.142,-9.056 0.962,-3.098 2.011,-6.209 3.214,-9.327 1.201,-3.112 2.659,-6.215 4.605,-9.124 1.906,-2.92 4.396,-5.62 7.396,-7.715 l 0.559,-0.398 c 0.193,-0.134 0.44,-0.266 0.66,-0.398 0.443,-0.278 0.926,-0.486 1.408,-0.693 0.479,-0.21 0.982,-0.345 1.477,-0.508 0.499,-0.108 1.004,-0.254 1.504,-0.315 2.013,-0.309 3.969,-0.192 5.789,0.115 3.65,0.643 6.857,1.956 9.929,3.348 6.094,2.887 11.635,6.293 17.227,9.466 5.556,3.226 11.199,6.155 17.037,8.361 2.922,1.091 5.924,1.885 8.958,2.35 3.036,0.478 6.123,0.494 9.159,-0.001 1.516,-0.249 3.018,-0.628 4.496,-1.128 1.465,-0.527 2.892,-1.181 4.296,-1.916 2.781,-1.514 5.364,-3.474 7.791,-5.652 -1.932,2.626 -4.224,5.033 -6.892,7.05 -1.332,1.012 -2.778,1.879 -4.284,2.656 -1.522,0.746 -3.112,1.372 -4.756,1.865 -3.303,0.913 -6.78,1.227 -10.198,1.04 -3.426,-0.174 -6.78,-0.886 -10.02,-1.812 -12.991,-3.829 -24.063,-11.441 -35.351,-16.846 -5.535,-2.635 -11.697,-4.772 -15.64,-1.874 -2.39,1.521 -4.496,3.564 -6.243,6.004 -1.747,2.433 -3.273,5.129 -4.626,7.98 -2.702,5.701 -4.828,11.898 -7.997,17.802 -1.646,2.9 -3.599,5.794 -6.358,7.886 -1.393,1.014 -2.949,1.784 -4.571,2.234 -1.618,0.427 -3.272,0.469 -4.873,0.357 -5.887,3.461 -13.736,3.671 -21.429,3.876 -6.959,0.187 -14.157,0.378 -19.921,2.914 l -0.504,0.222 c -3.068,1.35 -5.562,2.446 -6.258,2.988 0.73,0.239 2.884,0.433 5.33,0.652 6.353,0.567 18.176,1.623 34.684,5.529 36.196,8.563 30.226,56.6 29.745,60.049 l 16.185,25.101 1.92,1.397 c 14.453,10.526 14.452,10.525 31.406,2.745 4.253,-1.952 9.548,-4.382 16.375,-7.253 25.183,-10.591 38.195,-6.028 43.71,-2.365 4.36,2.897 7.068,7.3 7.068,11.493 v 1.978 l -0.939,-1.739 c -9.233,-17.098 -39.72,-7.512 -45.737,-5.416 -4.914,1.711 -10.971,7.464 -15.84,12.085 -3.717,3.53 -6.928,6.577 -8.994,7.315 -1.955,0.699 -4.997,0.461 -8.217,0.209 -4.64,-0.364 -9.901,-0.774 -12.352,1.675 l -3.462,3.464 c 1.93,2.948 16.063,24.283 26.057,32.553 6.813,5.637 14.771,17.543 22.467,29.055 4.617,6.908 9.393,14.049 13.737,19.527 10.955,13.815 20.191,53.246 21.037,56.936 l 15.687,5.31 c 2.128,-2.213 19.172,-19.942 28.612,-29.776 9.218,-9.604 22.196,-24.905 28.439,-46.798 2.463,-8.638 5.234,-16.122 7.461,-22.135 3.321,-8.968 5.728,-15.468 4.922,-19.528 -22.113,-30.367 -35.886,-44.517 -43.332,-44.517 h -0.043 c -1.932,0.014 -3.463,0.968 -4.962,3.092 l -1.167,1.654 0.262,-2.008 c 1.005,-7.661 3.887,-10.032 6.127,-10.673 3.401,-0.974 7.595,1.304 11.797,6.419 2.718,3.311 8.026,8.402 13.643,13.793 10.38,9.958 22.142,21.247 23.463,26.749 0.345,1.443 1.188,2.006 2.662,1.778 5.559,-0.868 16.213,-12.492 15.986,-18.765 -1.628,-1.474 -10.431,-9.705 -9.095,-14.049 M 314,648.804 c -97.388,0 -176.336,-142.679 -176.336,-318.684 0,-176.004 78.948,-318.683 176.336,-318.683 97.388,0 176.336,142.679 176.336,318.683 0,176.005 -78.948,318.684 -176.336,318.684" />
      </g>
    </g>
  </g>
</svg>
